<svg width="61" height="66" viewBox="0 0 61 66" fill="none" xmlns="http://www.w3.org/2000/svg">
<path d="M37.5565 58.2809C48.5125 54.4124 53.6233 40.6001 48.972 27.4302C44.3207 14.2604 31.6684 6.72006 20.7125 10.5885C9.75655 14.457 4.64566 28.2693 9.29701 41.4392C13.9484 54.6091 26.6006 62.1494 37.5565 58.2809Z" fill="#FF4EC6" stroke="black" stroke-width="1.35464" stroke-miterlimit="10"/>
<path d="M40.5721 55.58C51.5281 51.7115 56.639 37.8992 51.9876 24.7293C47.3363 11.5594 34.6841 4.01914 23.7281 7.88761C12.7722 11.7561 7.66129 25.5684 12.3126 38.7383C16.964 51.9082 29.6162 59.4484 40.5721 55.58Z" fill="#FFC3EC" stroke="black" stroke-width="1.35464" stroke-miterlimit="10"/>
<path d="M44.2282 48.6701C44.2127 48.6825 44.191 48.6624 44.2034 48.6453C48.2021 43.522 49.411 35.7473 46.7561 28.2266C42.9232 17.3803 32.5034 11.1676 23.48 14.3538C22.0618 14.8543 20.7646 15.5564 19.596 16.4288C19.551 16.4629 19.4952 16.404 19.5309 16.3622C21.2512 14.3058 23.4428 12.7173 26.0326 11.803C35.0576 8.61529 45.479 14.8264 49.3087 25.6743C52.4628 34.602 50.1689 43.8893 44.2282 48.6701Z" fill="#FF4EC6" stroke="black" stroke-width="1.35464" stroke-miterlimit="10"/>
<path d="M44.1109 48.7641C42.8617 49.7497 41.456 50.5385 39.9061 51.0856C30.8827 54.2733 20.4613 48.0621 16.63 37.2143C13.9549 29.6363 15.2025 21.798 19.2756 16.6762C20.5248 15.6906 21.9306 14.9018 23.4805 14.3548C32.5039 11.1686 42.9253 17.3798 46.7566 28.2276C49.4317 35.8056 48.184 43.6408 44.1109 48.7626V48.7641Z" fill="#FFC3EC" stroke="black" stroke-width="1.35464" stroke-miterlimit="10"/>
<path d="M44.1109 48.7641C42.8617 49.7497 41.456 50.5385 39.9061 51.0856C30.8827 54.2733 20.4613 48.0621 16.63 37.2143C13.9549 29.6363 15.2025 21.798 19.2756 16.6762C20.5248 15.6906 21.9306 14.9018 23.4805 14.3548C32.5039 11.1686 42.9253 17.3798 46.7566 28.2276C49.4317 35.8056 48.184 43.6408 44.1109 48.7626V48.7641Z" fill="#FF4EC6" stroke="black" stroke-width="1.35464" stroke-miterlimit="10"/>
<path fill-rule="evenodd" clip-rule="evenodd" d="M29.5273 36.7094L35.5982 41.5041L43.3833 38.7549L37.3124 33.9602L29.5273 36.7094Z" fill="#37058E" stroke="black" stroke-width="1.35464" stroke-miterlimit="10"/>
<path fill-rule="evenodd" clip-rule="evenodd" d="M23.611 30.7056L22.0781 38.7624L28.3303 44.0701L31.4689 27.9316L23.611 30.7056Z" fill="#4E15D9" stroke="black" stroke-width="1.35464" stroke-miterlimit="10"/>
<path fill-rule="evenodd" clip-rule="evenodd" d="M24.8125 23.3443L43.0205 38.883L44.4572 31.0261L32.3031 20.699L24.8125 23.3443Z" fill="#4E15D9" stroke="black" stroke-width="1.35464" stroke-miterlimit="10"/>
</svg>
