<svg width="153" height="179" viewBox="0 0 153 179" fill="none" xmlns="http://www.w3.org/2000/svg">
<g clip-path="url(#clip0_3112_14221)">
<path d="M82.7504 107.013C82.7504 107.035 82.7535 107.053 82.7628 107.066C82.8496 107.207 82.8434 107.186 82.7504 107.013Z" fill="#4678FF" stroke="black" stroke-width="1.34131" stroke-miterlimit="10"/>
<path d="M78.4431 86.253H78.4462C81.7703 89.6868 84.0355 96.5015 85.7117 103.074C97.4417 89.4291 139.888 45.582 138.735 41.8812C138.547 41.2727 138.105 40.5587 137.488 39.7825L126.363 30.1115C126.09 29.9097 125.83 29.7203 125.586 29.5433C124.235 28.5654 123.349 27.96 123.349 27.96C122.672 28.407 121.954 28.9379 121.202 29.5433C112.897 36.2432 100.233 52.2197 89.9663 66.0479C90.1323 66.5415 90.2827 67.0476 90.408 67.5599C90.6869 68.7179 90.831 69.9349 90.7401 71.2606C90.4582 75.2656 88.641 79.2023 85.5362 81.8258C83.4246 83.6109 81.0278 85.0857 78.4431 86.253Z" fill="#4678FF" stroke="black" stroke-width="1.34131" stroke-miterlimit="10"/>
<path d="M72.9681 89.8639C72.9681 89.8639 81.8971 105.424 82.7493 107.014C82.7493 106.666 83.8365 105.257 85.71 103.077C84.0339 96.5017 81.7687 89.687 78.4446 86.2563H78.4414C81.0262 85.0859 83.4229 83.6111 85.5346 81.826C88.6394 79.2025 90.4565 75.2658 90.7385 71.2608C90.8294 69.9351 90.6852 68.7181 90.4064 67.5601C90.2811 67.0478 90.1307 66.5417 89.9646 66.0481C89.5417 66.6131 89.125 67.1751 88.7146 67.7339C83.708 74.5176 79.3625 80.6555 76.5146 84.735C75.6624 85.952 74.9512 86.9828 74.3873 87.7962C73.4725 89.1219 72.9681 89.8639 72.9681 89.8639Z" fill="#4678FF" stroke="black" stroke-width="1.34131" stroke-miterlimit="10"/>
<path d="M37.7697 126.15C37.7697 126.15 37.4282 130.922 37.3874 137.05H99.7188C95.9905 129.683 91.4413 123.548 89.4299 118.419C88.465 115.964 87.3809 109.646 85.7111 103.076C84.0349 96.5005 81.7697 89.6858 78.4456 86.2552H78.4425C77.8347 85.6249 77.1955 85.1126 76.5157 84.7339C75.8703 84.3768 75.1935 84.1378 74.4823 84.0384C64.7355 82.6817 47.8392 84.2899 47.8392 84.2899C47.8392 84.2899 45.6617 83.5013 43.1616 84.7028C42.9955 84.7867 42.8264 84.8736 42.6541 84.976C42.4535 85.094 42.2468 85.2275 42.0431 85.3765C39.568 87.1679 37.0397 91.2226 36.1468 100.068C34.1949 119.388 37.7728 126.15 37.7728 126.15H37.7697Z" fill="#4678FF" stroke="black" stroke-width="1.34131" stroke-miterlimit="10"/>
<path d="M55.958 99.4246L69.3359 137.047H48.9526C45.901 128.136 42.9434 117.363 42.6364 108.437" fill="#4678FF"/>
<path d="M55.958 99.4246L69.3359 137.047H48.9526C45.901 128.136 42.9434 117.363 42.6364 108.437" stroke="black" stroke-width="1.34131" stroke-miterlimit="10"/>
<path d="M36.0392 78.3339C37.6715 80.5413 39.7111 82.4289 42.039 83.9905C42.2395 84.1302 42.4431 84.2606 42.6499 84.391C42.8159 84.4997 42.9851 84.6022 43.1574 84.7077C51.8578 89.9732 64.0672 91.0412 74.3873 87.8C75.7784 87.3653 77.1318 86.8499 78.4414 86.2538C81.0262 85.0865 83.4229 83.6118 85.5346 81.8266C88.6394 79.2032 90.4565 75.2664 90.7385 71.2614C90.8294 69.9358 90.6852 68.7187 90.4064 67.5607C90.2811 67.0484 90.1307 66.5424 89.9646 66.0487C89.5229 64.7355 88.959 63.4719 88.4483 62.1679C87.9376 60.8764 87.477 59.5507 87.2295 58.1039C86.1173 51.6276 86.534 28.057 74.2933 37.0202C72.3195 38.4639 70.4804 40.2304 69.0424 42.2081C67.3662 44.5086 67.1406 47.0886 64.3617 48.4298C63.6693 48.7651 62.7732 48.9979 61.8083 49.0973C61.1566 49.1656 60.4705 49.1749 59.7969 49.1159H59.7906C57.3343 48.8986 55.0128 47.7685 54.8342 45.2786C54.4519 39.9292 50.1879 30.8419 43.8467 36.4769C43.4394 36.837 43.0415 37.222 42.6499 37.6318C42.4431 37.8429 42.2395 38.0633 42.039 38.29C36.6815 44.2789 32.8342 54.2572 31.9726 61.5718C31.1705 68.3927 32.8216 73.9873 36.0392 78.3339Z" fill="#FBD645" stroke="black" stroke-width="1.34131" stroke-miterlimit="10"/>
<path d="M59.7921 49.1148C67.3583 49.1862 67.5557 47.7146 74.5078 50.2169" stroke="black" stroke-width="1.34131" stroke-miterlimit="10"/>
<path d="M53.6289 67.8356L37.143 63.9299" stroke="black" stroke-width="1.34131" stroke-miterlimit="10"/>
<path d="M51.5469 73.8467L38.3005 73.9429" stroke="black" stroke-width="1.34131" stroke-miterlimit="10"/>
<path d="M86.1737 63.8243L92.1953 59.425" stroke="black" stroke-width="1.34131" stroke-miterlimit="10"/>
<path d="M86.4836 67.9641L95.6602 67.0234" stroke="black" stroke-width="1.34131" stroke-miterlimit="10"/>
<path d="M75.0357 65.3683C74.1429 65.3683 73.4191 64.6511 73.4191 63.7663C73.4191 62.8815 74.1429 62.1643 75.0357 62.1643C75.9286 62.1643 76.6523 62.8815 76.6523 63.7663C76.6523 64.6511 75.9286 65.3683 75.0357 65.3683Z" fill="black"/>
<path d="M62.8795 66.8422C61.9866 66.8422 61.2628 66.1249 61.2628 65.2402C61.2628 64.3554 61.9866 63.6382 62.8795 63.6382C63.7723 63.6382 64.4961 64.3554 64.4961 65.2402C64.4961 66.1249 63.7723 66.8422 62.8795 66.8422Z" fill="black"/>
<path d="M63.2617 70.9189C63.2617 70.9189 66.6924 74.3495 70.2797 70.1986C70.2797 70.1986 72.6514 73.1015 77 69.9844" stroke="black" stroke-width="1.34131" stroke-miterlimit="10"/>
<path d="M57.7082 74.977C56.272 74.977 55.1078 73.8233 55.1078 72.4001C55.1078 70.9769 56.272 69.8232 57.7082 69.8232C59.1444 69.8232 60.3086 70.9769 60.3086 72.4001C60.3086 73.8233 59.1444 74.977 57.7082 74.977Z" fill="#FD6A69" stroke="#040203" stroke-width="1.34131" stroke-miterlimit="10"/>
<path d="M81.4699 71.0524C80.0338 71.0524 78.8695 69.8987 78.8695 68.4755C78.8695 67.0524 80.0338 65.8987 81.4699 65.8987C82.9061 65.8987 84.0703 67.0524 84.0703 68.4755C84.0703 69.8987 82.9061 71.0524 81.4699 71.0524Z" fill="#FD6A69" stroke="#040203" stroke-width="1.34131" stroke-miterlimit="10"/>
<path d="M125.891 29.5408C129.256 32.0059 134.548 36.1103 137.016 39.2118C137.32 39.0131 137.584 38.7493 137.781 38.4388L139.009 36.5108L139.04 36.4642C139.04 36.4642 139.122 36.4953 139.266 36.5387H139.269C140.218 36.8088 143.868 37.554 146.055 33.7197C146.055 33.7197 157.497 28.0289 149.89 22.1611C150.122 21.6798 150.629 20.4504 150.347 18.9291C150.288 18.6093 149.771 16.0542 147.543 15.2749C145.776 14.6571 143.624 15.4053 142.346 17.1688C142.336 17.1781 142.33 17.1905 142.321 17.1998C142.324 17.1967 142.327 17.1905 142.33 17.1843H142.333C142.766 16.5199 151.535 2.93393 146.422 1.15185C142.358 -0.260767 135.588 14.6757 135.588 14.6757C135.588 14.6757 124.434 14.7534 126.903 27.8022C126.903 27.8022 126.38 28.5784 125.891 29.5408Z" fill="#FBD645" stroke="black" stroke-width="1.34131" stroke-miterlimit="10"/>
<path d="M149.891 22.1639C148.662 24.1664 146.811 26.3489 144.502 27.1003C143.239 27.5132 141.942 27.3238 140.842 26.5849C139.458 25.6535 138.392 24.3651 138.819 22.6513C139.417 20.2483 141.435 18.0036 143.192 16.3364" fill="#FBD645"/>
<path d="M149.891 22.1639C148.662 24.1664 146.811 26.3489 144.502 27.1003C143.239 27.5132 141.942 27.3238 140.842 26.5849C139.458 25.6535 138.392 24.3651 138.819 22.6513C139.417 20.2483 141.435 18.0036 143.192 16.3364" stroke="black" stroke-width="1.34131" stroke-miterlimit="10"/>
<path d="M146.508 33.4648C146.182 33.5207 144.935 33.5549 143.873 33.0178C143.61 32.8843 142.729 32.3999 142.231 31.4033C141.282 29.5033 142.598 27.5132 142.657 27.4263" fill="#FBD645"/>
<path d="M146.508 33.4648C146.182 33.5207 144.935 33.5549 143.873 33.0178C143.61 32.8843 142.729 32.3999 142.231 31.4033C141.282 29.5033 142.598 27.5132 142.657 27.4263" stroke="black" stroke-width="1.34131" stroke-miterlimit="10"/>
<path d="M135.587 14.6758C136.99 15.0701 138.366 15.5917 139.685 16.2002C142.366 17.4358 146.9 19.5532 145.493 23.1515C144.112 26.6815 138.657 24.62 135.01 22.9559C135.01 22.9559 139.822 25.7439 136.718 31.0963" fill="#FBD645"/>
<path d="M135.587 14.6758C136.99 15.0701 138.366 15.5917 139.685 16.2002C142.366 17.4358 146.9 19.5532 145.493 23.1515C144.112 26.6815 138.657 24.62 135.01 22.9559C135.01 22.9559 139.822 25.7439 136.718 31.0963" stroke="black" stroke-width="1.34131" stroke-miterlimit="10"/>
<path d="M139.281 36.5394C139.281 36.5394 137.777 36.5177 135.017 34.9561L139.281 36.5394Z" fill="#FBD645"/>
<path d="M139.281 36.5394C139.281 36.5394 137.777 36.5177 135.017 34.9561" stroke="black" stroke-width="1.34131" stroke-miterlimit="10"/>
<path d="M129.926 32.0841C129.926 32.0841 128.071 30.9198 126.902 27.8027L129.926 32.0841Z" fill="#FBD645"/>
<path d="M129.926 32.0841C129.926 32.0841 128.071 30.9198 126.902 27.8027" stroke="black" stroke-width="1.34131" stroke-miterlimit="10"/>
</g>
<g clip-path="url(#clip1_3112_14221)">
<path d="M110.515 139.23C110.556 138.885 110.582 138.533 110.582 138.173C110.582 133.22 106.578 129.206 101.637 129.206C99.4258 129.206 97.406 130.015 95.8454 131.346C95.6422 123.964 89.5148 117.857 81.6973 117.497C78.6705 117.358 75.8144 118.099 73.4029 119.486C71.118 112.29 63.9276 106.839 55.1679 106.434C46.3611 106.027 38.6643 110.844 35.764 117.863C35.1545 117.757 34.5333 117.686 33.9002 117.656C25.6293 117.273 18.6126 123.687 18.2328 131.978C18.1504 133.749 18.38 135.464 18.8718 137.066C8.61626 138.542 0.863536 144.569 0.516092 152.134C0.203981 158.909 5.9162 165.007 14.3491 167.941C14.9792 172.752 18.966 176.571 23.9715 176.801C27.4636 176.964 30.623 175.34 32.5781 172.74C35.6168 175.656 39.6743 177.528 44.2057 177.737C50.6688 178.035 56.49 174.883 59.9026 169.906C61.9784 174.198 67.0046 177.362 73.0083 177.64C78.7264 177.905 83.7967 175.479 86.3937 171.725C87.3006 171.849 88.2252 171.937 89.1645 171.981C92.7449 172.147 96.1722 171.686 99.2963 170.727C101.131 171.285 103.095 171.592 105.138 171.592C115.249 171.592 123.447 164.183 123.447 155.045C123.447 147.598 118.002 141.302 110.515 139.224V139.23Z" fill="white" stroke="#040203" stroke-width="1.34131" stroke-linecap="round" stroke-linejoin="round"/>
<path d="M43.4531 131.977C43.7741 137.989 48.8945 142.603 54.8923 142.284C60.8901 141.962 65.4923 136.829 65.1743 130.817" stroke="#040203" stroke-width="1.34131" stroke-linecap="round" stroke-linejoin="round"/>
<path d="M38.0508 145.475C42.1141 145.257 45.2647 143.344 46.9518 139.932" stroke="#040203" stroke-width="1.34131" stroke-linecap="round" stroke-linejoin="round"/>
<path d="M26.8913 155.049C25.7724 159.09 28.1309 163.276 32.1619 164.397C34.8384 165.141 37.5767 164.35 39.4435 162.552" stroke="#040203" stroke-width="1.34131" stroke-linecap="round" stroke-linejoin="round"/>
</g>
<defs>
<clipPath id="clip0_3112_14221">
<rect width="121.354" height="136.614" fill="white" transform="matrix(-1 0 0 1 152.805 0.747803)"/>
</clipPath>
<clipPath id="clip1_3112_14221">
<rect width="123.534" height="71.9405" fill="white" transform="translate(0.203125 106.115)"/>
</clipPath>
</defs>
</svg>
