<svg width="136" height="167" viewBox="0 0 136 167" fill="none" xmlns="http://www.w3.org/2000/svg">
<path d="M101.616 58.5618L87.0664 101.73L104.697 68.4231L101.616 58.5618Z" fill="#000002" stroke="black" stroke-width="0.120085" stroke-miterlimit="10"/>
<path d="M87.005 101.871C86.9688 101.856 86.9398 101.828 86.9237 101.792C86.9076 101.756 86.9058 101.716 86.9186 101.679L101.47 58.5106C101.481 58.4798 101.501 58.4531 101.527 58.4341C101.554 58.4152 101.586 58.405 101.618 58.405C101.651 58.405 101.682 58.4152 101.709 58.4341C101.735 58.4531 101.755 58.4798 101.766 58.5106L104.845 68.372C104.853 68.3909 104.857 68.4113 104.857 68.432C104.857 68.4527 104.853 68.4731 104.845 68.4921L87.2116 101.794C87.1968 101.823 87.1733 101.846 87.1444 101.861C87.1155 101.876 87.0827 101.881 87.0507 101.876L87.005 101.871ZM101.622 59.0654L87.836 99.9591L104.53 68.4104L101.622 59.0654Z" fill="#000002" stroke="black" stroke-width="0.120085" stroke-miterlimit="10"/>
<path d="M127.65 72.6309L87.0664 101.73L117.714 75.4577L127.65 72.6309Z" fill="#FBD645" stroke="black" stroke-width="0.120085" stroke-miterlimit="10"/>
<path d="M86.9449 101.826C86.9194 101.795 86.9072 101.754 86.9108 101.714C86.9144 101.674 86.9335 101.636 86.9641 101.61L117.615 75.3401C117.631 75.3251 117.651 75.3144 117.672 75.3089L127.61 72.4941C127.646 72.4837 127.683 72.4862 127.717 72.5012C127.75 72.5162 127.777 72.5426 127.793 72.5758C127.808 72.609 127.812 72.6466 127.802 72.682C127.793 72.7175 127.772 72.7487 127.742 72.7703L87.1538 101.867C87.1219 101.891 87.0818 101.901 87.0422 101.896C87.0026 101.891 86.9667 101.87 86.9425 101.838L86.9449 101.826ZM117.79 75.5971L89.8941 99.5108L126.839 73.0249L117.79 75.5971Z" fill="#000002" stroke="black" stroke-width="0.120085" stroke-miterlimit="10"/>
<path d="M104.699 68.4221L98.3203 76.5495L108.652 76.6672L114.412 85.246L117.716 75.4567L127.652 72.6299L119.364 66.4623L119.746 56.1375L111.321 62.1129L101.618 58.5608L104.699 68.4221Z" fill="#00C7A9" stroke="black" stroke-width="0.120085" stroke-miterlimit="10"/>
<path d="M114.281 85.3331L108.567 76.8167L98.3166 76.699C98.2878 76.698 98.2599 76.6892 98.2358 76.6735C98.2117 76.6579 98.1923 76.636 98.1797 76.6101C98.167 76.584 98.1619 76.5549 98.1649 76.5261C98.1679 76.4972 98.1788 76.4698 98.1965 76.4468L104.525 68.3843L101.468 58.5998C101.46 58.5721 101.459 58.5428 101.466 58.515C101.474 58.4871 101.488 58.4616 101.508 58.4413C101.529 58.421 101.556 58.4071 101.584 58.4012C101.613 58.3952 101.642 58.3975 101.669 58.4077L111.295 61.9334L119.656 56.0036C119.679 55.9885 119.707 55.98 119.735 55.9791C119.763 55.9782 119.79 55.9848 119.815 55.9983C119.84 56.0118 119.86 56.0317 119.874 56.0559C119.888 56.0801 119.896 56.1076 119.896 56.1357L119.516 66.3789L127.74 72.4984C127.763 72.5159 127.781 72.5395 127.792 72.5667C127.802 72.5939 127.805 72.6235 127.8 72.6521C127.795 72.6805 127.781 72.7068 127.762 72.728C127.742 72.7493 127.717 72.7646 127.689 72.7722L117.842 75.5774L114.564 85.2899C114.555 85.3173 114.538 85.3416 114.515 85.3599C114.493 85.3782 114.466 85.3897 114.437 85.3931H114.394C114.372 85.3915 114.35 85.3853 114.331 85.375C114.311 85.3647 114.294 85.3504 114.281 85.3331ZM119.271 66.5999C119.251 66.5849 119.234 66.5649 119.223 66.5418C119.212 66.5187 119.207 66.4933 119.209 66.4678L119.579 56.4599L111.413 62.2528C111.393 62.268 111.369 62.2778 111.343 62.2812C111.318 62.2845 111.293 62.2814 111.269 62.272L101.861 58.816L104.847 68.3747C104.855 68.3988 104.857 68.4246 104.853 68.4498C104.849 68.475 104.838 68.4987 104.823 68.5188L98.6384 76.3988L108.653 76.5141C108.679 76.5138 108.703 76.5198 108.726 76.5316C108.748 76.5433 108.767 76.5604 108.781 76.5813L114.365 84.8984L117.569 75.4069C117.577 75.3834 117.591 75.3622 117.61 75.3451C117.628 75.328 117.65 75.3155 117.674 75.3084L127.307 72.5657L119.271 66.5999Z" fill="#000002" stroke="black" stroke-width="0.120085" stroke-miterlimit="10"/>
<path d="M114.41 85.2466L87.0664 101.729L108.65 76.6677L114.41 85.2466Z" fill="#8C6239" stroke="black" stroke-width="0.120085" stroke-miterlimit="10"/>
<path d="M86.9471 101.828C86.9233 101.8 86.9102 101.764 86.9102 101.727C86.9102 101.69 86.9233 101.655 86.9471 101.626L108.534 76.5768C108.549 76.559 108.568 76.545 108.59 76.5358C108.612 76.5267 108.635 76.5226 108.658 76.5239C108.682 76.5248 108.706 76.5314 108.727 76.5431C108.747 76.5548 108.765 76.5713 108.779 76.5912L114.543 85.17C114.565 85.2057 114.573 85.2488 114.564 85.2901C114.559 85.3105 114.55 85.3297 114.538 85.3466C114.526 85.3635 114.51 85.3778 114.492 85.3886L87.1465 101.862C87.1156 101.881 87.0791 101.888 87.0432 101.883C87.0058 101.877 86.9719 101.857 86.9471 101.828ZM108.634 76.925L87.8189 101.093L114.19 85.1989L108.634 76.925Z" fill="#000002" stroke="black" stroke-width="0.120085" stroke-miterlimit="10"/>
<path d="M98.3183 76.5503L87.0664 101.73L108.65 76.668L98.3183 76.5503Z" fill="#FF4198" stroke="black" stroke-width="0.120085" stroke-miterlimit="10"/>
<path d="M86.9832 101.859C86.9516 101.839 86.9281 101.808 86.9171 101.773C86.9061 101.737 86.9082 101.698 86.9232 101.664L98.1775 76.4872C98.1897 76.4592 98.2099 76.4354 98.2355 76.4188C98.2611 76.4021 98.2911 76.3934 98.3216 76.3936L108.649 76.5136C108.679 76.5137 108.708 76.5223 108.733 76.5385C108.758 76.5547 108.778 76.5777 108.791 76.6049C108.802 76.6321 108.806 76.6619 108.802 76.6911C108.798 76.7204 108.785 76.7479 108.767 76.7706L87.1849 101.83C87.1676 101.85 87.1455 101.865 87.1208 101.874C87.0961 101.884 87.0694 101.886 87.0432 101.883C87.022 101.878 87.0016 101.87 86.9832 101.859ZM98.4201 76.7058L87.6413 100.833L108.315 76.8163L98.4201 76.7058Z" fill="#000002" stroke="black" stroke-width="0.120085" stroke-miterlimit="10"/>
<path d="M40.4427 49.1152L54.9922 92.2833L37.3613 58.9766L40.4427 49.1152Z" fill="#000002" stroke="black" stroke-width="0.120085" stroke-miterlimit="10"/>
<path d="M55.0497 92.4245C55.0858 92.4096 55.1149 92.3813 55.131 92.3456C55.1471 92.3099 55.1489 92.2694 55.1361 92.2324L40.5843 49.0643C40.5737 49.0335 40.5538 49.0068 40.5273 48.9878C40.5008 48.9689 40.4691 48.9587 40.4366 48.9587C40.404 48.9587 40.3723 48.9689 40.3458 48.9878C40.3193 49.0068 40.2994 49.0335 40.2888 49.0643L37.2099 58.9257C37.2015 58.9446 37.1972 58.965 37.1972 58.9857C37.1972 59.0064 37.2015 59.0268 37.2099 59.0458L54.8431 92.3477C54.8579 92.3765 54.8814 92.4 54.9103 92.4146C54.9392 92.4293 54.972 92.4344 55.004 92.4293L55.0497 92.4245ZM40.4329 49.6191L54.2187 90.5128L37.5245 58.9641L40.4329 49.6191Z" fill="#000002" stroke="black" stroke-width="0.120085" stroke-miterlimit="10"/>
<path d="M14.4083 63.1846L54.9922 92.2835L24.3441 66.0114L14.4083 63.1846Z" fill="#FBD645" stroke="black" stroke-width="0.120085" stroke-miterlimit="10"/>
<path d="M55.1098 92.3795C55.1353 92.348 55.1475 92.3079 55.1439 92.2675C55.1403 92.2272 55.1212 92.1898 55.0906 92.1633L24.4402 65.8936C24.4238 65.8786 24.404 65.8679 24.3825 65.8624L14.4443 63.0476C14.4091 63.0372 14.3714 63.0397 14.3379 63.0547C14.3045 63.0696 14.2775 63.0961 14.2618 63.1292C14.2464 63.1625 14.243 63.2 14.2522 63.2355C14.2614 63.271 14.2826 63.3022 14.3122 63.3238L54.9009 92.4203C54.9328 92.4444 54.9729 92.4549 55.0125 92.4495C55.0521 92.4441 55.0879 92.4232 55.1122 92.3915L55.1098 92.3795ZM24.2648 66.1506L52.1605 90.0643L15.2152 63.5783L24.2648 66.1506Z" fill="#000002" stroke="black" stroke-width="0.120085" stroke-miterlimit="10"/>
<path d="M37.3594 58.9758L43.7383 67.1032L33.4062 67.2209L27.6469 75.7997L24.3422 66.0104L14.4064 63.1836L22.6946 57.0161L22.3127 46.6912L30.7379 52.6666L40.4408 49.1145L37.3594 58.9758Z" fill="#00C7A9" stroke="black" stroke-width="0.120085" stroke-miterlimit="10"/>
<path d="M27.7779 75.8868L33.4916 67.3704L43.742 67.2527C43.7708 67.2517 43.7987 67.2429 43.8228 67.2272C43.8469 67.2116 43.8663 67.1897 43.8789 67.1638C43.8916 67.1377 43.8967 67.1086 43.8937 67.0798C43.8907 67.0509 43.8798 67.0235 43.8621 67.0005L37.5336 58.938L40.591 49.1535C40.599 49.1259 40.5994 49.0966 40.5922 49.0687C40.5851 49.0408 40.5705 49.0154 40.5502 48.995C40.5293 48.9747 40.5031 48.9608 40.4746 48.9549C40.4461 48.9489 40.4165 48.9512 40.3892 48.9614L30.7632 52.4871L22.4029 46.5573C22.3793 46.5422 22.352 46.5337 22.324 46.5328C22.296 46.5319 22.2682 46.5385 22.2437 46.552C22.2191 46.5656 22.1986 46.5854 22.1844 46.6096C22.1701 46.6338 22.1627 46.6613 22.1628 46.6894L22.5422 56.9326L14.3188 63.0521C14.2955 63.0696 14.2775 63.0932 14.2668 63.1204C14.2562 63.1476 14.2534 63.1772 14.2588 63.2058C14.2641 63.2342 14.2773 63.2605 14.2968 63.2818C14.3163 63.303 14.3414 63.3183 14.3693 63.3259L24.2162 66.1311L27.4945 75.8436C27.5039 75.871 27.5208 75.8953 27.5433 75.9136C27.5658 75.9319 27.593 75.9434 27.6218 75.9468H27.6651C27.687 75.9452 27.7084 75.939 27.7278 75.9287C27.7473 75.9184 27.7643 75.9041 27.7779 75.8868ZM22.7872 57.1536C22.8079 57.1386 22.8245 57.1187 22.8354 57.0956C22.8464 57.0725 22.8513 57.047 22.8497 57.0215L22.4798 47.0136L30.6456 52.8065C30.6659 52.8217 30.6899 52.8315 30.7151 52.8349C30.7403 52.8382 30.766 52.8351 30.7897 52.8257L40.1971 49.3697L37.2118 58.9284C37.2035 58.9525 37.2014 58.9784 37.2056 59.0035C37.2098 59.0287 37.2202 59.0524 37.2358 59.0725L43.4202 66.9525L33.4051 67.0678C33.38 67.0675 33.3552 67.0735 33.333 67.0853C33.3107 67.097 33.2918 67.1141 33.2778 67.135L27.6939 75.4521L24.49 65.9606C24.4813 65.9371 24.4672 65.9159 24.4489 65.8988C24.4305 65.8817 24.4084 65.8692 24.3843 65.8621L14.7511 63.1194L22.7872 57.1536Z" fill="#000002" stroke="black" stroke-width="0.120085" stroke-miterlimit="10"/>
<path d="M27.6489 75.8003L54.9922 92.2831L33.4081 67.2214L27.6489 75.8003Z" fill="#8C6239" stroke="black" stroke-width="0.120085" stroke-miterlimit="10"/>
<path d="M55.1076 92.3817C55.1314 92.3535 55.1445 92.3177 55.1445 92.2808C55.1445 92.2439 55.1314 92.2081 55.1076 92.1799L33.5211 67.1302C33.5057 67.1125 33.4865 67.0985 33.4648 67.0893C33.4432 67.0801 33.4197 67.0761 33.3962 67.0774C33.3723 67.0783 33.349 67.0849 33.3281 67.0966C33.3072 67.1083 33.2894 67.1247 33.2761 67.1446L27.5121 75.7235C27.4894 75.7591 27.4816 75.8023 27.4905 75.8436C27.4954 75.8639 27.5043 75.8831 27.5166 75.9C27.529 75.9169 27.5446 75.9312 27.5625 75.9421L54.9082 92.4153C54.9391 92.4343 54.9756 92.4419 55.0115 92.4369C55.0489 92.4301 55.0828 92.4106 55.1076 92.3817ZM33.4202 67.4785L54.2357 91.6467L27.8651 75.7523L33.4202 67.4785Z" fill="#000002" stroke="black" stroke-width="0.120085" stroke-miterlimit="10"/>
<path d="M43.7402 67.104L54.9922 92.2834L33.4081 67.2217L43.7402 67.104Z" fill="#FF4198" stroke="black" stroke-width="0.120085" stroke-miterlimit="10"/>
<path d="M55.0715 92.4125C55.1031 92.3926 55.1266 92.362 55.1376 92.3263C55.1486 92.2906 55.1465 92.2522 55.1315 92.2179L43.8772 67.0409C43.865 67.0129 43.8448 66.9891 43.8192 66.9725C43.7936 66.9558 43.7636 66.9471 43.7331 66.9473L33.4058 67.0674C33.3759 67.0674 33.3467 67.076 33.3216 67.0922C33.2964 67.1084 33.2765 67.1314 33.2641 67.1586C33.2525 67.1858 33.2486 67.2156 33.2528 67.2448C33.2571 67.2741 33.2693 67.3016 33.2881 67.3243L54.8697 92.3836C54.8871 92.4036 54.9091 92.4188 54.9339 92.428C54.9586 92.4373 54.9853 92.4402 55.0114 92.4365C55.0327 92.4321 55.053 92.4239 55.0715 92.4125ZM43.6346 67.2595L54.4134 91.3869L33.7396 67.37L43.6346 67.2595Z" fill="#000002" stroke="black" stroke-width="0.120085" stroke-miterlimit="10"/>
<path d="M33.1461 89.2954C33.263 85.2496 34.576 81.4257 36.5383 77.9064C38.5198 74.3545 41.1578 71.1161 43.8904 68.2755C46.0375 66.0486 48.3473 63.9725 50.7694 62.0516H50.7709C50.8581 61.9807 50.9409 61.9156 51.0282 61.8476C51.3535 61.5918 52.1682 60.7844 52.9298 60.1899C53.4325 59.7951 53.9131 59.492 54.2118 59.5053C54.2148 59.5053 56.1563 59.5955 59.0634 59.7301H59.0649C60.832 59.8129 62.9495 59.9105 65.2045 60.014C67.1949 60.1057 69.2917 60.2018 71.3397 60.2964H71.3412C73.4942 60.3955 75.5984 60.4916 77.4763 60.5788H77.4778C80.1587 60.7031 82.3768 60.8066 83.6159 60.8642H83.6174C84.305 60.8953 84.6909 60.913 84.6909 60.913C84.6909 60.913 85.97 62.2661 87.8672 64.4797H87.8687C90.9681 68.0996 95.7132 74.007 99.1971 80.0401C101.522 84.0666 103.286 88.1494 103.626 91.6435C104.784 103.583 89.2616 102.567 89.2616 102.567L90.0705 109.716L90.2331 111.149H46.2519L46.4397 109.716L46.8508 106.567C44.8871 106.442 43.049 105.784 41.3973 104.755C41.3825 104.746 41.3663 104.735 41.3515 104.726C40.6994 104.316 40.0768 103.847 39.4868 103.331C39.3597 103.22 39.2325 103.106 39.1083 102.99C35.3465 99.4807 33.016 94.0006 33.1491 89.2998L33.1461 89.2954ZM88.9289 88.5841C88.7456 88.3046 88.5637 88.0355 88.3833 87.7723C88.3271 87.691 88.2709 87.6126 88.2147 87.5327C88.2029 87.5135 88.1896 87.4958 88.1763 87.4765C88.1334 87.4159 88.089 87.3568 88.0461 87.2976C87.9914 87.2222 87.9367 87.1468 87.882 87.0729C87.882 87.0699 87.8805 87.0699 87.8805 87.0684C87.8317 87.0048 87.7844 86.9427 87.7371 86.8806C87.638 86.7505 87.5389 86.6219 87.4384 86.4962C87.3881 86.4341 87.3408 86.372 87.2905 86.3113C87.1426 86.128 86.9948 85.9505 86.8454 85.7775C86.7981 85.7213 86.7478 85.6636 86.6975 85.6089V85.606C86.6975 85.606 86.6961 85.6045 86.6946 85.603C86.6044 85.504 86.5157 85.4049 86.4284 85.3088C86.3796 85.2555 86.3323 85.2053 86.2835 85.1535C86.1933 85.0574 86.1016 84.9627 86.0114 84.8696C85.9552 84.8119 85.8976 84.7542 85.8414 84.6995C85.7571 84.6153 85.6728 84.5339 85.5885 84.4526C85.5308 84.3979 85.4747 84.3446 85.4185 84.2929C85.417 84.2914 85.417 84.2899 85.4155 84.2899C85.3874 84.2633 85.3593 84.2367 85.3297 84.2116C85.3031 84.1879 85.278 84.1657 85.2529 84.1435C85.2011 84.0977 85.1493 84.0519 85.0976 84.0075C84.7412 83.694 84.3834 83.4116 84.0255 83.1558C83.9442 83.0996 83.8658 83.0463 83.786 82.9902C83.7283 82.9517 83.6706 82.9133 83.6144 82.8748C83.5716 82.8482 83.5272 82.8201 83.4858 82.7935C83.4503 82.7698 83.4148 82.7476 83.3778 82.724C83.3261 82.6914 83.2758 82.6604 83.2241 82.6293C83.2137 82.6234 83.2019 82.619 83.1915 82.6116C83.159 82.5924 83.128 82.5746 83.0969 82.5539C83.0422 82.5229 82.9889 82.4918 82.9342 82.4608C82.9121 82.4489 82.8899 82.4356 82.8662 82.4253C82.8381 82.4075 82.81 82.3927 82.7819 82.3765C82.7716 82.372 82.7612 82.3661 82.7509 82.3587C82.7272 82.3469 82.7065 82.3336 82.6829 82.3218C82.6592 82.3099 82.637 82.2981 82.6134 82.2878C82.5439 82.2523 82.4744 82.2168 82.4049 82.1828C82.3147 82.1399 82.223 82.097 82.1328 82.0571C82.0485 82.0186 81.9686 81.9832 81.8829 81.9462H81.8814C81.874 81.9447 81.8696 81.9417 81.8622 81.9403C81.8163 81.9196 81.7705 81.9018 81.7261 81.8826C81.6345 81.8456 81.5443 81.8116 81.4526 81.7776C81.4067 81.7599 81.3624 81.7436 81.3165 81.7288C81.2707 81.7111 81.2234 81.6963 81.179 81.68C81.1346 81.6667 81.0888 81.6504 81.043 81.6371C81.0075 81.6253 80.9735 81.612 80.9395 81.6031C80.83 81.5691 80.7177 81.5366 80.6053 81.507C80.5299 81.4863 80.453 81.4671 80.3776 81.4493C80.3761 81.4479 80.3731 81.4479 80.3716 81.4479C80.2193 81.4109 80.0655 81.3784 79.9132 81.3503C79.8304 81.3325 79.7521 81.3177 79.6722 81.3074C79.65 81.3029 79.6279 81.3 79.6057 81.2955C79.5983 81.2941 79.5909 81.2926 79.5835 81.2926C79.5391 81.2852 79.4948 81.2793 79.4504 81.2719C79.4356 81.2704 79.4193 81.2674 79.4046 81.266C79.307 81.2527 79.2108 81.2394 79.1103 81.229C79.0393 81.2231 78.9669 81.2157 78.8959 81.2083C78.7732 81.1979 78.6504 81.1891 78.5262 81.1846C78.4478 81.1802 78.368 81.1773 78.2867 81.1758C78.2453 81.1758 78.2039 81.1758 78.1624 81.1758C77.9806 81.1728 77.7972 81.1758 77.6153 81.1802C77.0549 81.2009 76.493 81.263 75.9266 81.3606C75.622 81.4138 75.3189 81.4774 75.0113 81.5499C75.0113 81.5499 75.418 86.3291 75.7048 89.6931C75.7108 89.7745 75.7181 89.8543 75.7255 89.9342C75.7595 90.3319 75.7906 90.7046 75.8202 91.0461C75.8261 91.1142 75.8305 91.1807 75.8379 91.2458C75.8409 91.2783 75.8438 91.3108 75.8453 91.3434C75.8557 91.4705 75.8675 91.5933 75.8764 91.7086C75.8793 91.7367 75.8823 91.7663 75.8838 91.7944C75.8882 91.8506 75.8926 91.9053 75.8971 91.957C75.9059 92.062 75.9148 92.1611 75.9222 92.2513C75.9252 92.2942 75.9296 92.3385 75.9326 92.3785C75.9399 92.482 75.9473 92.5722 75.9562 92.6476C75.9621 92.723 75.9666 92.7851 75.971 92.8324C75.9754 92.899 75.9784 92.9345 75.9784 92.9359V92.9404C75.9784 92.9404 75.9784 92.9433 75.9769 92.9463C77.429 92.2853 78.8308 91.7145 80.172 91.2251C80.1735 91.2251 80.1735 91.2236 80.1735 91.2236C80.6186 91.0609 81.0592 90.9057 81.4925 90.7593C81.494 90.7593 81.494 90.7578 81.494 90.7578C82.6089 90.3807 83.6751 90.0569 84.6865 89.7804C85.1153 89.6636 85.5338 89.5541 85.9434 89.4536C86.1933 89.3915 86.4388 89.3323 86.6783 89.2761C87.5227 89.0809 88.3182 88.9183 89.0576 88.7822H89.0591C89.0162 88.7157 88.9733 88.6492 88.9304 88.5841H88.9289Z" fill="#FF7D71" stroke="black" stroke-width="0.904927" stroke-miterlimit="10"/>
<path d="M46.8436 106.556C51.4246 106.195 56.155 105.42 60.0943 102.905C64.2066 100.279 67.5381 97.0196 71.992 94.8844C72.0703 94.8474 72.2552 94.7661 72.5036 94.6581C72.5095 94.6552 72.5125 94.6522 72.5184 94.6522C73.6112 94.1835 75.9106 93.2061 75.9727 92.9458" stroke="black" stroke-width="0.904927" stroke-miterlimit="10"/>
<path d="M54.3 74.3528C50.3489 76.8976 41.6792 89.7387 49.4912 92.6947C52.564 93.8584 56.9247 90.4323 59.3646 88.7096C59.3646 88.7096 69.3621 80.4184 75.0078 81.5482" stroke="black" stroke-width="0.904927" stroke-miterlimit="10"/>
<path d="M43.9288 47.5439C54.6982 62.226 81.9966 63.6751 96.5235 51.288C99.8225 48.4755 101.754 44.2552 102.052 39.9581C102.425 34.5889 99.1822 30.8877 98.3245 25.8483C97.143 18.9043 97.5837 -6.37276 84.577 3.24179C82.4817 4.79 80.5253 6.68422 78.9993 8.80321C77.2189 11.2727 76.9794 14.0364 74.0234 15.4766C70.9936 16.9538 64.2196 16.5871 63.9002 12.0948C63.4921 6.36039 58.9613 -3.3843 52.2243 2.6577C45.5435 8.64943 40.6224 20.8665 39.6065 29.5687C38.7533 36.8824 40.507 42.8815 43.9273 47.5454L43.9288 47.5439Z" fill="#00C7A9" stroke="black" stroke-width="0.904927" stroke-miterlimit="10"/>
<path d="M75.9731 92.9316C75.9731 92.9316 75.9731 92.9405 75.9701 92.9464C81.1353 90.5938 85.6675 89.396 89.0508 88.7809C84.5318 81.7185 79.9005 80.3729 75.0045 81.5485C75.0045 81.5485 75.9701 92.9094 75.9731 92.9316Z" fill="#00C7A9" stroke="black" stroke-width="0.904927" stroke-miterlimit="10"/>
<path d="M82.9118 71.384C82.9118 71.384 85.6312 79.7121 86.6914 85.6092" stroke="black" stroke-width="0.904927" stroke-miterlimit="10"/>
<path d="M72.5036 94.6581C72.5036 94.6581 72.5125 94.6522 72.5184 94.6522C73.6954 94.0223 74.8488 93.4574 75.9727 92.9458" stroke="black" stroke-width="0.904927" stroke-miterlimit="10"/>
<path d="M89.0537 88.7798C92.7904 88.0996 95.1194 88.1306 95.3516 88.1025" stroke="black" stroke-width="0.904927" stroke-miterlimit="10"/>
<path d="M89.2578 102.561C89.2578 102.561 77.8555 100.84 72.5055 94.6572" stroke="black" stroke-width="0.904927" stroke-miterlimit="10"/>
<path d="M47.3364 52.1388C47.0732 51.9924 46.7375 52.1018 46.6222 52.3798C45.8577 54.2208 44.0329 60.5437 53.6534 63.0561C63.8417 65.7177 79.3785 68.3809 91.1387 63.2764C93.4558 62.2709 95.0351 60.072 95.3116 57.5612L95.557 55.3328C95.6827 54.1897 94.5205 53.3365 93.4706 53.8068C86.9036 56.7583 67.6849 63.4524 47.3364 52.1373V52.1388Z" fill="#FF000A" stroke="black" stroke-width="0.904927" stroke-miterlimit="10"/>
<path d="M52.9258 62.8521V54.8257" stroke="black" stroke-width="0.904927" stroke-miterlimit="10"/>
<path d="M59.0625 64.3319V56.8733" stroke="black" stroke-width="0.904927" stroke-miterlimit="10"/>
<path d="M65.207 65.417V58.0693" stroke="black" stroke-width="0.904927" stroke-miterlimit="10"/>
<path d="M71.3438 66.0485V58.4761" stroke="black" stroke-width="0.904927" stroke-miterlimit="10"/>
<path d="M77.4727 66.1251V58.1416" stroke="black" stroke-width="0.904927" stroke-miterlimit="10"/>
<path d="M83.6133 65.485V57.0859" stroke="black" stroke-width="0.904927" stroke-miterlimit="10"/>
<path d="M89.7461 63.8364V55.2998" stroke="black" stroke-width="0.904927" stroke-miterlimit="10"/>
<path d="M50.8906 39.1215L44.5958 36.1108" stroke="black" stroke-width="0.904927" stroke-miterlimit="10"/>
<path d="M50.0742 42.1313L44.464 42.4049" stroke="black" stroke-width="0.904927" stroke-miterlimit="10"/>
<path d="M99.7454 39.8064L105.082 38.301" stroke="black" stroke-width="0.904927" stroke-miterlimit="10"/>
<path d="M99.6072 42.8147L104.945 43.8942" stroke="black" stroke-width="0.904927" stroke-miterlimit="10"/>
<path d="M80.582 43.355C80.582 43.355 77.4353 46.4943 72.9194 43.355" stroke="black" stroke-width="0.904927" stroke-miterlimit="10"/>
<path d="M40.5509 25.9673L54.609 25.1821C54.9003 24.1352 55.8629 23.418 56.9498 23.4402L72.176 23.7552C73.3368 23.7788 74.3113 24.6379 74.4798 25.7869C74.5952 26.5751 75.271 27.1591 76.068 27.1591H77.2569C78.0509 27.1591 78.7252 26.5795 78.8435 25.7943C79.0077 24.706 79.9511 23.9075 81.0512 23.9223L98.8282 24.1648C99.9964 24.181 100.965 25.0771 101.068 26.2423L101.261 28.4013C101.324 29.1155 100.761 29.7321 100.044 29.7321H99.6977C99.6977 29.7321 100.489 40.7086 90.1054 40.2132C79.7219 39.7193 78.635 31.8156 78.635 31.8156H74.6795C74.6795 31.8156 72.8991 41.8945 64.0993 40.9052C55.298 39.916 54.3103 34.9726 53.2219 30.4241L40.5775 29.9081C39.5202 29.8652 38.6862 28.9957 38.6862 27.9384C38.6862 26.8915 39.504 26.0279 40.5479 25.9703L40.5509 25.9673Z" fill="black"/>
<path d="M69.1649 16.2099C77.2032 16.2868 77.4132 14.7105 84.8008 17.3914" stroke="black" stroke-width="0.904927" stroke-miterlimit="10"/>
<path d="M119.941 123.35C119.985 122.973 120.013 122.59 120.013 122.197C120.013 116.794 115.702 112.415 110.382 112.415C108.001 112.415 105.826 113.297 104.145 114.749C103.926 106.696 97.3286 100.034 88.911 99.6413C85.6517 99.49 82.5764 100.298 79.9797 101.812C77.5194 93.9612 69.7771 88.014 60.3449 87.5728C50.862 87.1285 42.5743 92.3835 39.4514 100.041C38.7951 99.9246 38.1261 99.8474 37.4445 99.8152C28.5386 99.3966 20.9833 106.394 20.5743 115.439C20.4855 117.37 20.7328 119.241 21.2623 120.99C10.2195 122.6 1.87161 129.175 1.4975 137.428C1.16142 144.818 7.31217 151.47 16.3924 154.671C17.0709 159.919 21.3638 164.086 26.7536 164.337C30.5138 164.514 33.9157 162.743 36.0209 159.906C39.2929 163.088 43.6618 165.129 48.5412 165.358C55.5004 165.683 61.7685 162.244 65.4431 156.815C67.6783 161.497 73.0903 164.949 79.5549 165.252C85.712 165.541 91.1716 162.895 93.9679 158.799C94.9444 158.934 95.94 159.031 96.9514 159.079C100.807 159.259 104.497 158.757 107.861 157.71C109.836 158.319 111.951 158.654 114.151 158.654C125.039 158.654 133.865 150.572 133.865 140.603C133.865 132.479 128.003 125.61 119.941 123.344V123.35Z" fill="white" stroke="#040203" stroke-width="2.4657" stroke-linecap="round" stroke-linejoin="round"/>
<path d="M47.7344 115.44C48.08 121.999 53.5934 127.032 60.0517 126.684C66.51 126.333 71.4655 120.733 71.1231 114.174" stroke="#040203" stroke-width="2.4657" stroke-linecap="round" stroke-linejoin="round"/>
<path d="M41.9141 130.165C46.2893 129.927 49.6818 127.84 51.4984 124.118" stroke="#040203" stroke-width="2.4657" stroke-linecap="round" stroke-linejoin="round"/>
<path d="M29.897 140.61C28.6923 145.019 31.2318 149.584 35.5722 150.808C38.4542 151.619 41.4027 150.757 43.4128 148.796" stroke="#040203" stroke-width="2.4657" stroke-linecap="round" stroke-linejoin="round"/>
</svg>
