<svg width="41" height="56" viewBox="0 0 41 56" fill="none" xmlns="http://www.w3.org/2000/svg">
<g clip-path="url(#clip0_3066_21927)">
<path d="M1.03125 36.2727C1.3366 46.7698 9.95921 55.1868 20.5539 55.1868C31.1486 55.1868 39.7712 46.7698 40.0765 36.2727H1.03125Z" fill="#FFC852"/>
<path d="M20.5525 55.4568C15.3652 55.4568 10.4595 53.4691 6.74257 49.86C3.03288 46.2582 0.90813 41.4359 0.75727 36.2798L0.75 36.0005H40.3569L40.3496 36.2798C40.2006 41.434 38.074 46.2582 34.3643 49.86C30.6474 53.4691 25.7436 55.4568 20.5544 55.4568H20.5525ZM1.31345 36.5446C1.75876 46.8676 10.156 54.9145 20.5525 54.9145C30.9491 54.9145 39.3482 46.8694 39.7916 36.5446H1.31345Z" fill="black"/>
<path d="M20.5513 39.8727C31.3383 39.8727 40.083 38.0028 40.083 35.696C40.083 33.3893 31.3383 31.5193 20.5513 31.5193C9.76418 31.5193 1.01953 33.3893 1.01953 35.696C1.01953 38.0028 9.76418 39.8727 20.5513 39.8727Z" fill="black"/>
<path d="M20.5505 40.1446C10.95 40.1446 0.746094 38.5867 0.746094 35.6958C0.746094 32.805 10.95 31.2471 20.5505 31.2471C30.1509 31.2471 40.3548 32.8068 40.3548 35.6958C40.3548 38.5849 30.1509 40.1446 20.5505 40.1446ZM20.5505 31.793C9.20148 31.793 1.29137 33.8514 1.29137 35.6976C1.29137 37.5439 9.20148 39.6023 20.5505 39.6023C31.8994 39.6023 39.8095 37.5457 39.8095 35.6976C39.8095 33.8496 31.8994 31.793 20.5505 31.793Z" fill="black"/>
<path fill-rule="evenodd" clip-rule="evenodd" d="M25.4478 31.0425C29.69 31.6645 32.6599 33.0882 32.6599 34.7313C32.6599 36.9566 27.2381 38.7702 20.5585 38.7702C13.8789 38.7702 8.45703 36.9584 8.45703 34.7313C8.45703 33.0882 11.4142 31.6645 15.6692 31.0425C17.2778 31.3526 18.9245 31.5086 20.5585 31.5086C22.167 31.5213 23.7629 31.3653 25.3442 31.0679L25.4478 31.0425Z" fill="white"/>
<path d="M20.5577 39.0406C13.6182 39.0406 8.18359 37.1472 8.18359 34.7296C8.18359 32.9596 11.0372 31.4434 15.6284 30.7723C15.6593 30.7687 15.6902 30.7687 15.7193 30.7742C17.3024 31.0807 18.931 31.2348 20.5577 31.2348C22.0972 31.2493 23.6912 31.1006 25.2943 30.7996L25.3834 30.7778C25.4179 30.7687 25.4542 30.7669 25.4888 30.7723C30.0818 31.4452 32.9336 32.9614 32.9336 34.7296C32.9336 37.1472 27.4972 39.0406 20.5595 39.0406H20.5577ZM15.6611 31.3182C11.5116 31.9312 8.72705 33.3005 8.72705 34.7314C8.72705 36.5505 13.48 38.4983 20.5559 38.4983C27.6317 38.4983 32.3847 36.5505 32.3847 34.7314C32.3847 33.3041 29.6038 31.9349 25.4597 31.3201L25.4088 31.3328C23.7566 31.6447 22.1281 31.7952 20.5541 31.7807C18.911 31.7807 17.2642 31.6247 15.6593 31.3182H15.6611Z" fill="black"/>
<path fill-rule="evenodd" clip-rule="evenodd" d="M23.6029 24.4148C27.4562 24.8428 30.2189 26.0452 30.2189 27.4816C30.2189 29.268 25.8858 30.7044 20.5294 30.7044C15.173 30.7044 10.8398 29.2553 10.8398 27.4816C10.8398 26.0579 13.6153 24.841 17.4558 24.4148C18.4682 24.5708 19.4915 24.6614 20.5166 24.6469C21.5018 24.6469 22.5014 24.5689 23.4866 24.4275L23.6029 24.4148Z" fill="white"/>
<path d="M20.5286 30.9767C14.9431 30.9767 10.5664 29.4424 10.5664 27.4819C10.5664 25.9186 13.2582 24.6074 17.4241 24.1431C17.4478 24.1413 17.4714 24.1413 17.495 24.1431C18.5801 24.3099 19.5671 24.3861 20.5122 24.3734C21.4628 24.3734 22.4479 24.3009 23.4476 24.1558L23.573 24.1413C23.593 24.1394 23.613 24.1394 23.633 24.1413C27.7989 24.6037 30.4907 25.9131 30.4907 27.4801C30.4907 29.6673 25.4251 30.9749 20.5286 30.9749V30.9767ZM17.4496 24.689C13.7763 25.1043 11.1117 26.2759 11.1117 27.4819C11.1117 28.9074 14.8959 30.4326 20.5286 30.4326C26.1613 30.4326 29.9455 28.9074 29.9455 27.4819C29.9455 26.2541 27.339 25.1079 23.6021 24.689L23.5149 24.698C22.4988 24.8449 21.4864 24.9193 20.514 24.9193C19.5543 24.9338 18.5492 24.8558 17.4478 24.689H17.4496Z" fill="black"/>
<path d="M20.5443 24.002C24.5556 24.002 27.8074 22.918 27.8074 21.5808C27.8074 20.2437 24.5556 19.1597 20.5443 19.1597C16.533 19.1597 13.2812 20.2437 13.2812 21.5808C13.2812 22.918 16.533 24.002 20.5443 24.002Z" fill="white"/>
<path d="M20.5435 24.2745C16.8902 24.2745 13.0078 23.3314 13.0078 21.5813C13.0078 19.8312 16.8902 18.8899 20.5435 18.8899C24.1968 18.8899 28.0792 19.833 28.0792 21.5813C28.0792 23.3296 24.1968 24.2745 20.5435 24.2745ZM20.5435 19.434C16.423 19.434 13.5531 20.5657 13.5531 21.5813C13.5531 22.5969 16.4249 23.7304 20.5435 23.7304C24.6621 23.7304 27.5339 22.5987 27.5339 21.5813C27.5339 20.5638 24.6621 19.434 20.5435 19.434Z" fill="black"/>
<path d="M40.0822 35.9682C39.9877 35.9682 39.8968 35.9211 39.8459 35.834L20.5505 2.9933L1.2532 35.834C1.17686 35.9628 1.00965 36.0081 0.880597 35.9319C0.751549 35.8558 0.707927 35.6889 0.782448 35.5601L20.316 2.31682C20.3651 2.2334 20.4541 2.18262 20.5505 2.18262C20.6468 2.18262 20.7359 2.2334 20.7849 2.31682L40.3167 35.5583C40.393 35.6871 40.3494 35.8539 40.2185 35.9301C40.1749 35.9555 40.1276 35.9682 40.0804 35.9682H40.0822Z" fill="black"/>
<path d="M20.5497 3.95837C21.3819 3.95837 22.0565 3.28524 22.0565 2.45489C22.0565 1.62455 21.3819 0.951416 20.5497 0.951416C19.7176 0.951416 19.043 1.62455 19.043 2.45489C19.043 3.28524 19.7176 3.95837 20.5497 3.95837Z" fill="#FFC852"/>
<path d="M20.5489 4.23023C19.5674 4.23023 18.7695 3.43406 18.7695 2.45472C18.7695 1.47537 19.5674 0.679199 20.5489 0.679199C21.5304 0.679199 22.3284 1.47537 22.3284 2.45472C22.3284 3.43406 21.5304 4.23023 20.5489 4.23023ZM20.5489 1.22328C19.8692 1.22328 19.3148 1.77643 19.3148 2.45472C19.3148 3.133 19.8692 3.68615 20.5489 3.68615C21.2287 3.68615 21.7831 3.133 21.7831 2.45472C21.7831 1.77643 21.2287 1.22328 20.5489 1.22328Z" fill="black"/>
<path d="M12.5825 42.2231C7.9949 42.2231 4.43426 40.9427 4.26341 40.8792C3.97986 40.7758 3.83627 40.4639 3.93988 40.181C4.04348 39.898 4.3561 39.7548 4.63965 39.8563C4.68509 39.8727 9.25085 41.5103 14.5309 41.0497C14.8308 41.0243 15.0962 41.2456 15.1216 41.5448C15.1471 41.844 14.9253 42.1088 14.6254 42.1342C13.9275 42.1959 13.2441 42.2213 12.5825 42.2213V42.2231Z" fill="white"/>
</g>
<defs>
<clipPath id="clip0_3066_21927">
<rect width="39.6087" height="54.778" fill="white" transform="translate(0.75 0.679443)"/>
</clipPath>
</defs>
</svg>
