<svg width="1120" height="693" viewBox="0 0 1120 693" fill="none" xmlns="http://www.w3.org/2000/svg">
<path d="M787.286 91.9125C984.037 41.3973 1147.33 109.922 1128.2 209.482C1112.76 289.865 1042.4 332.89 973.957 361.722C951.902 371.013 846.762 406.63 852.604 440.893C859.081 478.9 916.892 480.425 983.969 482.193L983.994 482.194C990.874 482.375 997.84 482.559 1004.87 482.785C1088.08 485.463 1178.58 494.059 1201.08 574.321C1201.57 576.084 1202.09 577.812 1202.64 579.504C1231.2 667.612 1332.57 661.976 1363.36 658.107L1372.3 656.743L1371.34 662.01C1371.34 662.01 1251.69 741.148 1173.56 640.082C1035.9 461.957 858.661 616.331 759.599 491.482C726.275 449.486 746.707 411.23 786.786 376.131C815.159 351.281 853.376 328.013 889.346 306.119C891.251 304.96 893.147 303.805 895.034 302.655C956.912 264.947 1010.09 231.333 991.492 200.729C967.309 160.951 905.423 180.373 817.264 208.04L817.261 208.04C805.996 211.576 794.301 215.246 782.202 218.944C717.821 238.622 641.971 259.1 558.247 264.363C391.336 274.856 193.134 224.873 -7.86719 -12.4962L213.836 -202.738C213.836 -202.738 354.237 80.8444 629.594 105.721C677.997 110.094 730.572 106.473 787.286 91.9125Z" fill="#FF7BE9" stroke="#2F2F2F" stroke-width="2.57359" stroke-linecap="round"/>
<path d="M1192.11 588.163C1193.68 591.959 1195.29 595.688 1197.01 599.3C1241.21 690.8 1355.4 662.688 1370.42 658.536C1371.49 658.235 1372.06 658.064 1372.06 658.064L1371.82 659.376C1371.82 659.376 1246.8 711.938 1189.19 612.894C1187.12 609.287 1185.14 605.645 1183.13 602.017C1095.43 443.485 862.145 571.396 806.1 466.199C783.782 424.439 823.835 392.994 878.564 361.222C887.392 356.095 896.605 350.959 905.999 345.77C908.838 344.204 911.695 342.632 914.552 341.055C976.18 307.111 1042.92 270.352 1059.81 218.518C1062.88 209.106 1063.38 200.185 1060.17 191.396C1032.95 116.85 886.705 136.433 701.055 175.225C687.644 178.026 674.4 180.212 661.326 181.82C635.863 184.95 611.043 185.888 586.884 184.913C365.221 175.973 199.227 6.07039 102.98 -107.589L158.41 -155.171C163.3 -149.396 169.287 -141.846 176.36 -132.925C208.163 -92.8163 261.937 -24.9971 336.787 33.7382C373.235 62.341 414.683 88.7898 461.025 108.836C505.079 127.893 553.558 141.163 606.371 144.995C649.446 148.121 695.406 144.969 744.2 133.557C925.978 91.0331 1074.25 107.419 1094.53 186.707C1096.79 195.528 1096.44 204.566 1094.02 213.996C1075.87 285.271 992.831 324.088 924.057 357.869C914.406 362.608 905.038 367.249 896.168 371.866C849.637 396.088 816.851 419.667 829.362 453.539C845.013 496.107 904.712 497.03 972.148 498.073C1057.79 499.397 1155.9 500.914 1192.11 588.163Z" fill="#6F2FCE" stroke="#2F2F2F" stroke-width="2.57359" stroke-linecap="round"/>
<path d="M288.364 94.3673C289.306 94.526 290.199 93.8912 290.358 92.9484C290.517 92.0065 289.882 91.1143 288.94 90.9547C287.997 90.796 287.105 91.4317 286.946 92.3736C286.787 93.3155 287.422 94.2077 288.364 94.3673Z" fill="white" fill-opacity="0.5" stroke="#2F2F2F" stroke-width="2.57359"/>
<path d="M280.168 79.5063C281.455 79.7242 282.676 78.856 282.893 77.5675C283.11 76.2799 282.242 75.0591 280.953 74.8421C279.666 74.6251 278.446 75.4932 278.229 76.7817C278.011 78.0694 278.879 79.2892 280.168 79.5063Z" fill="white" fill-opacity="0.5" stroke="#2F2F2F" stroke-width="2.57359"/>
<path d="M1060.16 191.398C1063.38 200.187 1062.88 209.108 1059.81 218.521C1042.92 270.354 976.18 307.113 914.551 341.057C911.694 342.635 908.837 344.206 905.998 345.772C896.604 350.961 887.391 356.097 878.563 361.224C869.101 366.717 860.076 372.199 851.738 377.727C811.851 404.175 787.639 431.66 806.099 466.201C831.258 513.426 892.135 513.673 959.528 513.946C1042.26 514.281 1134.8 514.656 1183.13 602.019C1183.49 602.665 1183.84 603.312 1184.2 603.958L1184.31 604.154C1185.92 607.074 1187.52 609.996 1189.19 612.896C1243.05 705.494 1355.83 665.578 1370.28 659.993C1371.29 659.599 1371.82 659.376 1371.82 659.376L1371.58 660.697C1371.58 660.697 1249.25 726.538 1181.39 626.493L1180.47 625.126C1178.36 621.992 1176.28 618.896 1174.17 615.876C1062.49 455.373 859.407 592.61 782.858 478.845C754.349 436.555 784.591 400.897 832.491 367.248C853.111 352.76 877.011 338.646 900.902 324.535V324.533C904.325 322.51 907.756 320.487 911.171 318.464C962.394 288.107 1011.41 257.524 1025.62 223.046C1029.47 213.676 1030.05 204.823 1025.83 196.076C1000.25 143.011 910.999 162.767 786.612 190.301C781.658 191.398 776.648 192.506 771.585 193.623C736.143 201.443 698.057 209.665 657.947 216.883C628.729 222.14 599.754 224.774 571.085 224.953C375.524 226.175 194.235 113.197 47.5703 -60.0191L102.98 -107.587C149.224 -52.9752 211.571 14.621 288.458 71.1069C335.753 105.853 388.548 136.395 446.482 157.126C490.385 172.837 537.238 182.914 586.883 184.916C611.042 185.891 635.862 184.953 661.325 181.822C674.4 180.214 687.644 178.028 701.055 175.227C886.704 136.436 1032.94 116.852 1060.16 191.398Z" fill="#FFA9A9" stroke="#2F2F2F" stroke-width="2.57359" stroke-linecap="round"/>
<path d="M1173.57 640.084C1251.69 741.148 1371.34 662.01 1371.34 662.01L1371.58 660.689C1371.58 660.689 1249.25 726.53 1181.39 626.491L1180.45 625.106C1178.35 621.977 1176.28 618.887 1174.17 615.873C1062.49 455.369 859.408 592.607 782.857 478.843C754.349 436.553 784.59 400.894 832.491 367.245C853.111 352.758 877.011 338.643 900.903 324.532V324.53C904.326 322.507 907.748 320.484 911.171 318.46C962.386 288.104 1011.4 257.521 1025.62 223.044C1029.47 213.673 1030.05 204.819 1025.83 196.074C1000.25 143.009 911 162.764 786.611 190.298L786.602 190.3C781.651 191.396 776.645 192.505 771.585 193.621C736.142 201.44 698.057 209.663 657.947 216.88C628.729 222.138 599.753 224.771 571.084 224.95C375.524 226.173 194.234 113.194 47.5698 -60.0215L-7.86719 -12.4942C193.133 224.875 391.336 274.858 558.247 264.365C657.697 258.114 746.037 230.393 817.243 208.048C877.08 190.3 958.697 172.295 983.961 205.154C1002.56 235.758 956.913 264.949 895.035 302.657C893.148 303.807 891.243 304.963 889.347 306.121L889.339 306.122C853.377 328.016 815.159 351.284 786.786 376.133C746.707 411.232 726.275 449.488 759.599 491.484C858.662 616.333 1035.9 461.958 1173.57 640.084Z" fill="#9AF6C1" stroke="#2F2F2F" stroke-width="2.57359" stroke-linecap="round"/>
</svg>
