<svg width="129" height="136" viewBox="0 0 129 136" fill="none" xmlns="http://www.w3.org/2000/svg">
<g clip-path="url(#clip0_3066_21478)">
<path d="M88.7228 18.9622C95.2286 46.7992 103.728 74.497 114.26 101.818C90.8536 110.568 67.2167 118.836 43.3602 126.617C31.7672 96.2019 22.4026 65.3416 15.2388 34.2846C39.8909 29.6893 64.3907 24.5793 88.7228 18.9622Z" fill="#00C7A9" stroke="black" stroke-width="1.72064" stroke-miterlimit="10"/>
<path d="M61.789 51.6371C61.789 51.6371 61.0941 59.0475 62.3558 60.3627C61.4096 61.0117 60.4644 61.6629 59.5192 62.3141C57.1939 62.2517 54.8663 62.1796 52.5365 62.0977C50.4122 58.0248 48.0989 52.1913 49.3371 48.4806C51.3973 42.2189 57.0755 35.7961 65.8788 38.0473C68.6858 38.7562 70.8553 39.9566 72.5163 41.2677C67.7277 43.5497 59.6131 47.3912 59.6109 47.3922C60.3326 48.8094 61.0565 50.2254 61.7868 51.6381L61.789 51.6371Z" fill="#FFB926" stroke="black" stroke-width="1.72064" stroke-miterlimit="10"/>
<path d="M109.574 103.563C89.5132 110.997 69.286 118.078 48.896 124.802C47.8965 123.349 47.0493 121.687 46.3938 120.289C43.2805 113.639 45.4535 106.667 48.4307 101.163C49.9139 98.4217 52.0578 96.3219 53.912 93.9043C54.462 93.1897 55.0227 92.4317 55.5714 91.6334C60.4096 95.7862 68.3706 96.5636 73.7548 95.9825C76.0694 95.737 78.4934 95.3957 80.5514 94.2871C82.5422 93.2122 83.9768 91.2121 85.323 89.4143C86.7341 87.535 87.2532 85.9423 87.6481 83.8752C93.6693 86.0724 101.048 88.7111 102.408 89.8218C104.446 91.4965 105.178 93.7558 106.128 96.1567C106.982 98.3083 107.832 100.484 108.974 102.513C109.175 102.87 109.379 103.217 109.575 103.56L109.574 103.563Z" fill="#F84494" stroke="black" stroke-width="1.72064" stroke-miterlimit="10"/>
<path d="M82.1324 59.1649C81.9748 61.1375 81.4384 63.0739 81.9219 64.6595C82.4021 66.2441 81.8021 70.0215 81.8086 70.0237C81.8021 70.0269 84.5035 74.3907 81.6058 75.8578C78.7015 77.3282 78.1561 77.0951 78.1561 77.0951C78.6006 78.376 79.0528 79.6558 79.5049 80.9357C79.5049 80.9357 83.2101 82.2676 87.6551 83.8795C87.2613 85.9488 86.7433 87.5382 85.3301 89.4186C83.9827 91.2142 82.5482 93.2143 80.5584 94.2914C78.4982 95.4011 76.0786 95.7402 73.7618 95.9869C68.3798 96.5668 60.4166 95.7905 55.5784 91.6377C58.3282 87.632 60.7441 82.6794 59.4227 77.6016C59.3909 77.4841 59.3591 77.3666 59.3251 77.2501C56.8782 68.9553 55.3254 66.8435 55.3145 66.8435C55.3145 66.8435 55.2219 66.7074 55.0616 66.4582C54.6069 65.7572 53.5982 64.1462 52.536 62.0989C52.9527 62.1133 53.3715 62.1266 53.7882 62.141C54.6737 62.1709 55.5581 62.1986 56.4424 62.2264C56.4457 62.2275 56.4511 62.2275 56.4565 62.2275C56.7506 62.2353 57.0425 62.2441 57.3366 62.2519C57.7793 62.2642 58.2198 62.2775 58.6604 62.2908C58.9469 62.2997 59.2323 62.3064 59.5176 62.3131C60.4628 61.6619 61.408 61.0107 62.3542 60.3617C61.0925 59.0466 61.7765 51.6306 61.7874 51.6361C61.057 50.2233 60.331 48.8084 59.6115 47.3902C59.6115 47.3902 67.7304 43.5466 72.5168 41.2656C76.0671 44.0619 77.2982 47.3704 77.2972 47.3737C77.3801 47.5174 77.463 47.6611 77.5438 47.8058C77.6409 47.9778 77.7401 48.1487 77.8394 48.3196C77.9169 48.4524 77.9943 48.5851 78.0696 48.719C78.086 48.7517 78.1078 48.7843 78.1263 48.8159C78.2529 49.0358 78.3784 49.2535 78.5049 49.4733C78.3953 49.7953 78.2867 50.1195 78.177 50.4415C78.1684 50.4676 78.1588 50.497 78.1502 50.5231C78.1502 50.5231 78.195 50.6396 78.2695 50.842C78.4763 51.4057 78.9142 52.6192 79.2324 53.751C79.251 53.8207 79.2719 53.8892 79.2894 53.9567C79.4618 54.5922 79.5852 55.1842 79.5985 55.5999C79.5995 55.602 82.2911 57.189 82.1324 59.1594L82.1324 59.1649Z" fill="#FFB926" stroke="black" stroke-width="1.72064" stroke-miterlimit="10"/>
<path d="M60.9876 69.0117C60.9756 69.0041 62.4263 75.8751 69.2381 76.5778C76.0357 77.2684 78.1531 77.0891 78.1542 77.0967" fill="#FFB926"/>
<path d="M60.9876 69.0117C60.9756 69.0041 62.4263 75.8751 69.2381 76.5778C76.0357 77.2684 78.1531 77.0891 78.1542 77.0967" stroke="black" stroke-width="1.72064" stroke-miterlimit="10"/>
<path d="M58.1065 60.8786C56.3978 59.8994 55.0186 57.8094 53.1763 59.5209C51.4832 61.0922 52.3184 64.4548 54.022 65.8617C54.9826 66.6576 56.2533 66.715 57.2396 67.4109C57.9334 67.902 58.3131 68.924 59.0748 69.2693C60.6819 69.9971 60.6308 67.9276 60.3936 66.6816" fill="#FFB926"/>
<path d="M58.1065 60.8786C56.3978 59.8994 55.0186 57.8094 53.1763 59.5209C51.4832 61.0922 52.3184 64.4548 54.022 65.8617C54.9826 66.6576 56.2533 66.715 57.2396 67.4109C57.9334 67.902 58.3131 68.924 59.0748 69.2693C60.6819 69.9971 60.6308 67.9276 60.3936 66.6816" stroke="black" stroke-width="1.72064" stroke-miterlimit="10"/>
<path d="M58.4571 63.599C57.6085 62.5453 55.7701 60.0209 54.293 61.2659C52.9458 62.4021 54.424 64.6085 55.6734 65.1152" fill="#FFB926"/>
<path d="M58.4571 63.599C57.6085 62.5453 55.7701 60.0209 54.293 61.2659C52.9458 62.4021 54.424 64.6085 55.6734 65.1152" stroke="black" stroke-width="1.72064" stroke-miterlimit="10"/>
<path d="M56.411 62.1382C56.5536 62.6062 56.6711 63.0567 56.6064 63.5387C56.5312 64.1077 56.3104 64.2784 56.6431 64.8444C56.9878 65.4289 57.5702 65.6708 58.1383 65.879" fill="#FFB926"/>
<path d="M56.411 62.1382C56.5536 62.6062 56.6711 63.0567 56.6064 63.5387C56.5312 64.1077 56.3104 64.2784 56.6431 64.8444C56.9878 65.4289 57.5702 65.6708 58.1383 65.879" stroke="black" stroke-width="1.72064" stroke-miterlimit="10"/>
<path d="M63.5998 61.6651C63.9981 62.7295 65.1479 63.6486 65.9271 64.3748C66.6322 65.0346 67.5435 65.3376 68.2291 65.9746" fill="#FFB926"/>
<path d="M63.5998 61.6651C63.9981 62.7295 65.1479 63.6486 65.9271 64.3748C66.6322 65.0346 67.5435 65.3376 68.2291 65.9746" stroke="black" stroke-width="1.72064" stroke-miterlimit="10"/>
<path d="M80.2777 66.4023C79.9108 67.0386 79.2912 67.3494 78.6191 67.5448C77.625 67.8337 76.7029 67.5252 75.7139 67.7106C74.7825 67.8863 73.8116 68.6376 73.1431 69.2835C72.9268 69.4901 72.2698 70.37 72.2056 70.296" fill="#FFB926"/>
<path d="M80.2777 66.4023C79.9108 67.0386 79.2912 67.3494 78.6191 67.5448C77.625 67.8337 76.7029 67.5252 75.7139 67.7106C74.7825 67.8863 73.8116 68.6376 73.1431 69.2835C72.9268 69.4901 72.2698 70.37 72.2056 70.296" stroke="black" stroke-width="1.72064" stroke-miterlimit="10"/>
<path d="M79.5995 69.0775C79.0394 69.7017 77.8054 69.6041 77.0562 69.7538C76.1204 69.9426 75.8029 70.7748 75.0086 71.0942C75.0577 71.1649 75.0607 71.0898 75.1105 71.0485" fill="#FFB926"/>
<path d="M79.5995 69.0775C79.0394 69.7017 77.8054 69.6041 77.0562 69.7538C76.1204 69.9426 75.8029 70.7748 75.0086 71.0942C75.0577 71.1649 75.0607 71.0898 75.1105 71.0485" stroke="black" stroke-width="1.72064" stroke-miterlimit="10"/>
<path d="M76.0275 49.9362C75.7914 52.1252 76.105 54.2047 77.0045 56.2574C77.4023 57.164 77.8029 57.9194 78.4325 58.6879C78.9313 59.2987 79.5935 59.7376 80.1031 60.3156C80.6301 60.9122 80.5369 61.9807 80.3114 62.7095C80.0654 63.5004 78.5273 63.975 77.7855 63.7341" fill="#FFB926"/>
<path d="M76.0275 49.9362C75.7914 52.1252 76.105 54.2047 77.0045 56.2574C77.4023 57.164 77.8029 57.9194 78.4325 58.6879C78.9313 59.2987 79.5935 59.7376 80.1031 60.3156C80.6301 60.9122 80.5369 61.9807 80.3114 62.7095C80.0654 63.5004 78.5273 63.975 77.7855 63.7341" stroke="black" stroke-width="1.72064" stroke-miterlimit="10"/>
<path d="M76.7211 63.8506C76.3082 64.0059 75.6894 64.5724 75.206 64.4089C74.5652 64.1909 74.5783 63.1899 74.9322 62.9007" fill="#FFB926"/>
<path d="M76.7211 63.8506C76.3082 64.0059 75.6894 64.5724 75.206 64.4089C74.5652 64.1909 74.5783 63.1899 74.9322 62.9007" stroke="black" stroke-width="1.72064" stroke-miterlimit="10"/>
<path d="M75.9885 61.4014C76.0671 61.8769 76.3458 62.1948 76.7113 62.4856C77.0072 62.724 77.399 62.77 77.6036 62.9398" fill="#FFB926"/>
<path d="M75.9885 61.4014C76.0671 61.8769 76.3458 62.1948 76.7113 62.4856C77.0072 62.724 77.399 62.77 77.6036 62.9398" stroke="black" stroke-width="1.72064" stroke-miterlimit="10"/>
<path d="M72.1218 50.5366C72.0227 51.1013 71.6679 52.4698 71.1881 52.7514C70.7127 53.0307 69.557 52.6459 69.0578 52.6239C67.7383 52.5665 66.3347 52.3578 65.0244 52.4919C64.5602 52.5395 62.8272 52.8257 62.8298 53.2795" fill="#FFB926"/>
<path d="M72.1218 50.5366C72.0227 51.1013 71.6679 52.4698 71.1881 52.7514C70.7127 53.0307 69.557 52.6459 69.0578 52.6239C67.7383 52.5665 66.3347 52.3578 65.0244 52.4919C64.5602 52.5395 62.8272 52.8257 62.8298 53.2795" stroke="black" stroke-width="1.72064" stroke-miterlimit="10"/>
<path d="M74.0059 48.8508C73.9762 49.0728 75.0697 49.7176 75.4036 49.9561C75.6666 49.41 76.6197 47.4825 77.4006 47.7311C77.8589 47.8771 77.8019 48.7312 78.2471 48.8186" fill="#FFB926"/>
<path d="M74.0059 48.8508C73.9762 49.0728 75.0697 49.7176 75.4036 49.9561C75.6666 49.41 76.6197 47.4825 77.4006 47.7311C77.8589 47.8771 77.8019 48.7312 78.2471 48.8186" stroke="black" stroke-width="1.72064" stroke-miterlimit="10"/>
<path d="M72.8747 55.078C71.9481 55.0905 71.1518 54.0868 70.8568 53.4446L72.8747 55.078Z" fill="#FFB926"/>
<path d="M72.8747 55.078C71.9481 55.0905 71.1518 54.0868 70.8568 53.4446" stroke="black" stroke-width="1.72064" stroke-miterlimit="10"/>
<path d="M67.8844 52.8916C67.1229 53.298 66.7344 54.9778 66.3188 55.6739C65.7684 56.5984 65.0431 57.4772 64.56 58.4224" fill="#FFB926"/>
<path d="M67.8844 52.8916C67.1229 53.298 66.7344 54.9778 66.3188 55.6739C65.7684 56.5984 65.0431 57.4772 64.56 58.4224" stroke="black" stroke-width="1.72064" stroke-miterlimit="10"/>
<path d="M72.5464 55.7089C70.2606 55.4551 68.3213 57.0545 66.4996 58.1099C67.7739 58.9365 69.7314 58.6494 70.8888 57.8754C71.3598 57.5601 71.6041 57.2469 71.94 56.776C72.1442 56.491 72.4067 55.7817 72.5442 55.71L72.5464 55.7089Z" fill="#FFB926" stroke="black" stroke-width="1.72064" stroke-miterlimit="10"/>
<path d="M72.9302 56.8686C72.2307 57.6853 71.7183 58.6208 70.8666 59.2959L72.9302 56.8686Z" fill="#FFB926"/>
<path d="M72.9302 56.8686C72.2307 57.6853 71.7183 58.6208 70.8666 59.2959" stroke="black" stroke-width="1.72064" stroke-miterlimit="10"/>
<path d="M80.2235 53.5856C80.0205 53.5431 79.742 53.6745 79.5024 53.7212C79.0687 53.808 78.7396 53.7033 78.3055 53.6813C77.7749 53.6559 76.4852 53.8042 76.5201 54.5224C76.5561 55.2808 77.8781 55.0781 78.4266 54.9065C79.0975 54.6926 79.0584 54.3335 79.3304 53.8865" fill="#FFB926"/>
<path d="M80.2235 53.5856C80.0205 53.5431 79.742 53.6745 79.5024 53.7212C79.0687 53.808 78.7396 53.7033 78.3055 53.6813C77.7749 53.6559 76.4852 53.8042 76.5201 54.5224C76.5561 55.2808 77.8781 55.0781 78.4266 54.9065C79.0975 54.6926 79.0584 54.3335 79.3304 53.8865" stroke="black" stroke-width="1.72064" stroke-miterlimit="10"/>
<path d="M59.6992 78.0511C60.1269 79.8282 61.6853 81.6702 62.8494 83.007C63.603 83.8768 64.4126 84.6205 65.1186 85.536C65.477 86.0019 65.9468 86.6627 66.3253 86.9469" fill="#FFB926"/>
<path d="M59.6992 78.0511C60.1269 79.8282 61.6853 81.6702 62.8494 83.007C63.603 83.8768 64.4126 84.6205 65.1186 85.536C65.477 86.0019 65.9468 86.6627 66.3253 86.9469" stroke="black" stroke-width="1.72064" stroke-miterlimit="10"/>
<path d="M63.0695 84.3294C62.402 85.2909 62.4401 87.0481 62.0575 88.1991C61.7813 89.0324 61.4929 89.7982 61.0602 90.552C60.8487 90.9196 60.3937 91.4775 60.5384 91.6093" fill="#FFB926"/>
<path d="M63.0695 84.3294C62.402 85.2909 62.4401 87.0481 62.0575 88.1991C61.7813 89.0324 61.4929 89.7982 61.0602 90.552C60.8487 90.9196 60.3937 91.4775 60.5384 91.6093" stroke="black" stroke-width="1.72064" stroke-miterlimit="10"/>
<path d="M63.875 76.6953C65.0323 78.9647 66.6303 80.9448 68.054 83.0533C69.1735 84.7122 69.4601 87.1758 70.6639 88.6998" fill="#FFB926"/>
<path d="M63.875 76.6953C65.0323 78.9647 66.6303 80.9448 68.054 83.0533C69.1735 84.7122 69.4601 87.1758 70.6639 88.6998" stroke="black" stroke-width="1.72064" stroke-miterlimit="10"/>
<path d="M78.0611 78.0862C77.3114 80.1596 76.7725 82.6804 75.0335 84.133L78.0611 78.0862Z" fill="#FFB926"/>
<path d="M78.0611 78.0862C77.3114 80.1596 76.7725 82.6804 75.0335 84.133" stroke="black" stroke-width="1.72064" stroke-miterlimit="10"/>
<path d="M79.3117 81.3919C79.5103 82.4529 79.2735 84.4189 79.245 85.6919C79.222 86.6462 79.2955 87.6092 79.5025 88.557C79.5157 88.6212 79.6763 89.2872 79.6253 88.9531" fill="#FFB926"/>
<path d="M79.3117 81.3919C79.5103 82.4529 79.2735 84.4189 79.245 85.6919C79.222 86.6462 79.2955 87.6092 79.5025 88.557C79.5157 88.6212 79.6763 89.2872 79.6253 88.9531" stroke="black" stroke-width="1.72064" stroke-miterlimit="10"/>
<path d="M71.1692 56.7613C71.3063 57.2402 71.0475 57.7296 70.59 57.8501C70.1336 57.9728 69.6487 57.682 69.5105 57.201C69.3723 56.72 69.6322 56.2327 70.0897 56.1122C70.5472 55.9917 71.0309 56.2803 71.167 56.7624L71.1692 56.7613Z" fill="#FFB926" stroke="black" stroke-width="1.72064" stroke-miterlimit="10"/>
<path d="M78.7542 54.2074C78.8486 54.5361 78.6685 54.8743 78.3508 54.9601C78.0332 55.0459 77.6984 54.8487 77.6029 54.5179C77.5075 54.1871 77.6909 53.8499 78.0063 53.7652C78.3261 53.6783 78.6566 53.8777 78.7542 54.2074Z" fill="#FFB926" stroke="black" stroke-width="1.72064" stroke-miterlimit="10"/>
<path d="M75.7582 50.1727C76.6506 49.6325 78.0257 49.4331 78.3037 50.8575L75.7582 50.1727Z" fill="#FFB926"/>
<path d="M75.7582 50.1727C76.6506 49.6325 78.0257 49.4331 78.3037 50.8575" stroke="black" stroke-width="1.72064" stroke-miterlimit="10"/>
</g>
<defs>
<clipPath id="clip0_3066_21478">
<rect width="90.2869" height="105.335" fill="white" transform="translate(0.332031 41.4226) rotate(-26.6384)"/>
</clipPath>
</defs>
</svg>
