<svg width="189" height="178" viewBox="0 0 189 178" fill="none" xmlns="http://www.w3.org/2000/svg">
<path d="M112.96 88.3121C112.96 88.3121 112.952 88.3121 112.939 88.3206C112.409 88.4425 101.632 90.7804 93.1975 82.8248L108.259 109.757L108.268 109.778C105.072 112.334 101.746 114.719 98.2475 116.834C96.6034 117.826 94.9215 118.764 93.1975 119.626L91.3306 115.824L83.6315 118.579L83.6063 123.494C81.1885 124.221 78.7244 124.789 76.2099 125.147C72.4424 125.681 68.6749 125.441 64.9031 125.269V125.231C64.941 124.053 64.9494 122.943 64.9283 121.884V121.871C64.7055 108.012 60.1348 104.072 60.1348 104.072C58.9869 106.885 57.3176 109.408 55.2404 111.535C53.1548 113.663 50.6655 115.391 47.8861 116.598L46.919 117.019C43.1599 114.416 40.0609 110.964 37.5548 107.062C36.9577 106.124 36.3943 105.169 35.8477 104.198L37.5422 103.294L37.6305 103.244L37.6684 103.218C38.5598 102.684 43.7612 99.169 42.5586 91.1714C41.8059 86.1719 44.7703 82.131 47.4488 79.5829C48.2057 80.0244 49.0677 80.3019 49.9675 80.386C50.409 80.4239 50.8589 80.4575 51.3047 80.4743C53.18 80.55 55.0764 80.4365 56.9728 80.1632C58.7851 79.9067 60.589 79.5072 62.3676 78.9984C64.1252 78.5022 65.8618 77.9009 67.5564 77.2282C69.2846 76.5386 70.9749 75.7817 72.5854 74.9786C74.3051 74.1292 75.9492 73.2462 77.4924 72.3464C79.0104 71.4717 80.4316 70.5929 81.7309 69.7604C81.9285 69.6342 82.1135 69.5123 82.2901 69.3861C85.9694 66.8254 86.6884 64.273 86.4025 62.2715C93.063 61.3086 97.2972 66.2115 97.2972 66.2115C98.647 67.3468 100.056 68.2592 101.464 68.9573C101.935 69.1885 102.402 69.3988 102.869 69.5838C103.1 69.6721 103.335 69.7604 103.571 69.8445C104.185 70.0547 104.79 70.2271 105.383 70.3617C107.814 70.9041 110.101 70.7821 111.976 70.0379C112.077 70.5593 112.149 71.0849 112.208 71.5853C112.414 73.3261 112.481 75.0711 112.775 76.7993C113.419 80.5584 113.515 84.511 112.973 88.3248L112.96 88.3121Z" fill="#FFDA30" stroke="black" stroke-width="0.840969" stroke-linecap="round" stroke-linejoin="round"/>
<g style="mix-blend-mode:multiply" opacity="0.3">
<path d="M169.412 163.852C166.103 162.287 162.343 162.59 158.757 162.918C161.687 162.838 163.639 158.507 161.915 155.917C160.434 153.697 157.537 153.453 155.027 153.419C154.27 153.407 153.513 153.398 152.756 153.386C154.06 154.559 155.162 156.064 154.905 157.872C154.691 159.382 153.576 160.147 152.26 160.256C151.524 160.32 150.789 160.214 150.057 160.168C149.477 160.13 148.741 160.038 148.211 160.357C147.008 161.076 148.123 162.258 148.837 162.72C150.061 163.507 151.449 163.974 152.777 164.499C153.816 164.911 155.12 165.294 155.935 166.16C156.936 167.22 157.117 169.234 156.696 170.609C155.717 173.792 152.285 175.777 149.502 176.617C139.053 179.775 128.002 177.98 117.751 174.717C112.676 173.102 107.588 171.298 102.26 171.164C97.2399 171.038 92.2655 172.026 87.5855 173.985C81.8627 176.378 76.9305 180.515 71.132 182.731C69.6982 183.282 66.9818 184.384 65.6867 182.921C65.0602 182.214 65.1401 181.125 65.3377 180.246C65.7035 178.64 66.5403 177.223 67.1122 175.701C67.5537 174.523 68.0246 172.938 66.923 172.009C66.1661 171.37 65.1149 171.164 64.194 171.021C62.9746 170.827 61.7258 170.794 60.4937 170.823C55.3722 170.945 50.3601 172.463 45.5119 174.141C41.3785 175.57 37.304 177.21 33.1076 178.421C29.5461 179.447 25.7449 180.238 22.0573 179.586C18.9625 179.039 15.6155 177.055 14.4255 173.708C13.9167 172.274 13.6896 170.155 14.2699 168.679C11.8731 168.59 9.4806 168.481 7.15532 169.057C3.87134 169.873 0.637824 172.602 0.486449 176.273C0.284617 181.167 5.22952 184.241 9.53107 185.683C24.8367 190.805 41.6729 190.187 56.6043 184.01C55.0232 185.124 54.4304 187.87 55.4059 189.774C56.5917 192.087 59.2743 193.079 61.6921 192.882C64.1141 192.688 66.3679 191.545 68.5965 190.506C78.6881 185.818 89.524 183.013 100.482 182.26C122.923 180.717 146.369 187.558 167.478 179.174C170.295 178.056 173.31 176.348 174.231 173.233C175.336 169.499 172.721 165.42 169.412 163.856V163.852Z" fill="#0996D4"/>
</g>
<path d="M169.588 162.157C166.38 160.774 162.734 161.047 159.252 161.345C162.095 161.27 164 157.414 162.326 155.114C160.892 153.142 158.083 152.932 155.645 152.902C149.922 152.835 144.199 152.772 138.48 152.704L96.5666 148.811C83.6998 156.371 68.0536 157.59 53.1684 156.531C52.4242 156.476 51.6799 156.417 50.9357 156.354C47.7526 158.175 44.4097 159.727 41.2519 161.602C41.6598 161.585 42.0508 161.572 42.4124 161.564C40.3899 164.133 25.202 166.694 21.9307 166.757C18.6593 166.82 15.3375 166.332 12.1502 167.064C8.96291 167.796 5.8219 170.226 5.66632 173.493C5.46449 177.845 10.2538 180.574 14.425 181.848C29.2639 186.377 45.5997 185.797 60.098 180.276C58.5632 181.268 57.983 183.715 58.9249 185.406C60.0728 187.462 62.6714 188.336 65.0219 188.16C67.3724 187.983 69.5589 186.961 71.7244 186.036C81.5259 181.848 92.0422 179.338 102.676 178.648C124.453 177.236 147.189 183.282 167.683 175.789C170.42 174.788 173.343 173.266 174.247 170.495C175.328 167.173 172.796 163.545 169.588 162.161V162.157Z" fill="#0996D4"/>
<mask id="mask0_3115_14224" style="mask-type:luminance" maskUnits="userSpaceOnUse" x="5" y="148" width="170" height="41">
<path d="M169.592 162.156C166.383 160.773 162.738 161.046 159.256 161.345C162.099 161.269 164.004 157.413 162.33 155.113C160.896 153.141 158.087 152.931 155.649 152.902C149.926 152.834 144.203 152.771 138.484 152.704L96.5705 148.81C83.7037 156.371 68.0575 157.59 53.1723 156.53C52.4281 156.476 51.6838 156.417 50.9396 156.354C47.7565 158.174 44.4137 159.726 41.2558 161.601C41.6637 161.585 42.0547 161.572 42.4164 161.564C40.3938 164.133 25.2059 166.693 21.9346 166.757C18.6632 166.82 15.3414 166.332 12.1541 167.064C8.96682 167.795 5.82581 170.226 5.67023 173.493C5.4684 177.845 10.2577 180.574 14.4289 181.848C29.2678 186.376 45.6036 185.796 60.1019 180.275C58.5671 181.267 57.9869 183.715 58.9288 185.405C60.0767 187.461 62.6753 188.336 65.0258 188.159C67.3763 187.983 69.5628 186.961 71.7283 186.036C81.5298 181.848 92.0461 179.337 102.68 178.648C124.457 177.235 147.193 183.282 167.687 175.789C170.424 174.788 173.347 173.266 174.251 170.495C175.331 167.173 172.8 163.544 169.592 162.161V162.156Z" fill="white"/>
</mask>
<g mask="url(#mask0_3115_14224)">
<path d="M169.596 162.156C166.388 160.773 162.742 161.046 159.261 161.345C162.103 161.269 164.008 157.413 162.334 155.113C160.9 153.141 158.092 152.931 155.653 152.901C154.917 152.893 154.185 152.885 153.449 152.876C154.711 153.915 155.779 155.256 155.527 156.862C155.316 158.204 154.232 158.885 152.957 158.986C152.247 159.041 151.528 158.952 150.817 158.91C150.254 158.877 149.543 158.797 149.026 159.083C147.857 159.722 148.938 160.773 149.631 161.185C150.817 161.883 152.163 162.295 153.449 162.762C154.454 163.128 155.72 163.464 156.511 164.234C157.482 165.175 157.654 166.967 157.242 168.19C156.288 171.02 152.953 172.795 150.25 173.547C140.107 176.373 129.385 174.796 119.449 171.912C114.529 170.482 109.593 168.888 104.425 168.775C99.5517 168.67 94.7288 169.561 90.1833 171.31C84.6288 173.451 79.8352 177.138 74.2049 179.119C72.8131 179.611 70.1767 180.599 68.9195 179.295C68.314 178.665 68.3897 177.697 68.5873 176.915C68.9447 175.486 69.7604 174.224 70.3155 172.87C70.7444 171.823 71.2027 170.41 70.1389 169.586C69.4072 169.019 68.3855 168.838 67.494 168.712C66.3083 168.543 65.0973 168.514 63.9031 168.539C58.933 168.657 54.068 170.015 49.3628 171.516C45.3513 172.795 41.3946 174.262 37.3201 175.347C33.8637 176.268 30.1719 176.974 26.5977 176.402C23.5997 175.919 20.3493 174.161 19.2014 171.188C18.7094 169.914 18.495 168.03 19.0585 166.714C16.7332 166.639 14.4121 166.546 12.1541 167.063C8.96685 167.795 5.82581 170.225 5.67023 173.493C5.4684 177.845 10.2577 180.574 14.4289 181.848C29.2678 186.376 45.6036 185.796 60.1019 180.275C58.5671 181.267 57.9869 183.715 58.9288 185.405C60.0767 187.461 62.6753 188.336 65.0258 188.159C67.3763 187.982 69.5628 186.961 71.7283 186.036C81.5298 181.848 92.0461 179.337 102.68 178.648C124.457 177.235 147.193 183.281 167.687 175.788C170.424 174.788 173.347 173.266 174.251 170.495C175.331 167.173 172.8 163.544 169.592 162.161L169.596 162.156Z" fill="white"/>
</g>
<path d="M169.588 162.157C166.38 160.774 162.734 161.047 159.252 161.345C162.095 161.27 164 157.414 162.326 155.114C160.892 153.142 158.083 152.932 155.645 152.902C149.922 152.835 144.199 152.772 138.48 152.704L96.5666 148.811C83.6998 156.371 68.0536 157.59 53.1684 156.531C52.4242 156.476 51.6799 156.417 50.9357 156.354C47.7526 158.175 44.4097 159.727 41.2519 161.602C41.6598 161.585 42.0508 161.572 42.4124 161.564C40.3899 164.133 25.202 166.694 21.9307 166.757C18.6593 166.82 15.3375 166.332 12.1502 167.064C8.96291 167.796 5.8219 170.226 5.66632 173.493C5.46449 177.845 10.2538 180.574 14.425 181.848C29.2639 186.377 45.5997 185.797 60.098 180.276C58.5632 181.268 57.983 183.715 58.9249 185.406C60.0728 187.462 62.6714 188.336 65.0219 188.16C67.3724 187.983 69.5589 186.961 71.7244 186.036C81.5259 181.848 92.0422 179.338 102.676 178.648C124.453 177.236 147.189 183.282 167.683 175.789C170.42 174.788 173.343 173.266 174.247 170.495C175.328 167.173 172.796 163.545 169.588 162.161V162.157Z" stroke="black" stroke-width="0.840969" stroke-linecap="round" stroke-linejoin="round"/>
<path d="M58.5117 164.965C110.547 119.969 140.805 91.7294 120.184 37.7771L144.669 27.5215L169.944 43.3737L186.843 67.4801C186.843 67.4801 204.289 128.627 122.615 163.611" fill="#0996D4"/>
<path d="M58.5117 164.965C110.547 119.969 140.805 91.7294 120.184 37.7771L144.669 27.5215L169.944 43.3737L186.843 67.4801C186.843 67.4801 204.289 128.627 122.615 163.611" stroke="black" stroke-width="0.840969" stroke-linecap="round" stroke-linejoin="round"/>
<g style="mix-blend-mode:multiply" opacity="0.3">
<path d="M133.315 57.8382C135.661 57.4808 137.991 56.9888 140.282 56.3707C141.863 55.946 143.487 55.4835 144.971 54.8233C145.24 54.7056 145.509 54.8444 145.538 55.1471C145.585 55.7021 145.677 56.2488 145.833 56.7828C147.044 60.9456 151.821 60.9918 155.382 60.6302C157.59 60.4074 159.768 59.9785 161.95 59.6084C163.72 59.3099 165.587 58.9483 167.391 59.1249C170.347 59.4066 173.248 60.9918 175.448 62.9219C178.088 65.2387 180.115 68.2704 181.793 71.3273C183.441 74.3296 184.85 77.4958 187.036 80.1617C187.469 80.6915 187.928 81.1961 188.407 81.6755C188.419 73.0009 186.847 67.4757 186.847 67.4757L169.948 43.3693L144.672 27.5171L120.188 37.7727C122.98 45.0807 124.834 51.9136 125.83 58.3848C128.332 58.4395 130.843 58.2124 133.315 57.834V57.8382Z" fill="#0996D4"/>
</g>
<path d="M188.119 77.349C187.741 70.1924 186.218 62.897 183.389 55.5511C176.06 36.5326 161.191 21.4162 142.597 13.0654C121.279 3.49517 86.4039 -6.86977 58.0296 9.98745C55.4983 11.4886 53.7785 14.146 53.6313 17.0852C53.3622 22.4842 58.2314 29.1237 88.233 23.0309C88.233 23.0309 77.2289 42.7474 108.971 34.6825C108.971 34.6825 108.79 57.8638 145.154 46.0103C145.154 46.0103 145.326 54.1593 165.602 51.3295C170.913 50.5894 176.282 52.7339 179.369 57.1195C182.741 61.9088 185.583 68.973 188.123 77.3448L188.119 77.349Z" fill="white" stroke="black" stroke-width="0.840969" stroke-linecap="round" stroke-linejoin="round"/>
<path d="M145.148 46.0141C145.148 46.0141 141.918 36.3429 157.691 35.6702" stroke="black" stroke-width="0.840969" stroke-linecap="round" stroke-linejoin="round"/>
<path d="M108.969 34.6873C108.969 34.6873 109.469 26.614 122.109 20.6389" stroke="black" stroke-width="0.840969" stroke-linecap="round" stroke-linejoin="round"/>
<path d="M88.2344 23.0331C88.2344 23.0331 89.5042 19.6482 96.1268 15.1406" stroke="black" stroke-width="0.840969" stroke-linecap="round" stroke-linejoin="round"/>
<path d="M161.335 62.3206C161.335 62.3206 163.278 86.7423 154.801 101.413" stroke="white" stroke-width="0.840969" stroke-linecap="round" stroke-linejoin="round"/>
<path d="M152.747 71.7649C152.747 71.7649 157.124 98.987 135.688 129.842" stroke="white" stroke-width="0.840969" stroke-linecap="round" stroke-linejoin="round"/>
<path d="M136.655 52.1538C136.655 52.1538 142.811 73.6364 131.883 95.9599" stroke="white" stroke-width="0.840969" stroke-linecap="round" stroke-linejoin="round"/>
<path d="M171.186 90.136C171.186 90.136 175.159 120.693 132.812 151.039" stroke="white" stroke-width="0.840969" stroke-linecap="round" stroke-linejoin="round"/>
<path d="M144.974 111.19C102.85 112.485 40.5761 150.74 32.5322 169.326C31.2119 172.374 32.4986 175.881 35.5219 177.223C41.7871 179.998 58.1355 180.309 100.428 159.625C103.417 158.162 106.327 156.551 109.166 154.815C122.878 146.409 160.734 123.321 150.428 112.073C149.204 110.736 146.782 111.139 144.974 111.194V111.19Z" fill="#00B547"/>
<path d="M144.196 109.546C101.765 110.845 39.0291 149.159 30.9222 167.77C29.5935 170.823 30.8885 174.334 33.9328 175.675C40.2443 178.455 56.7147 178.762 99.3182 158.048C102.329 156.585 105.264 154.971 108.123 153.23C121.94 144.812 161.188 119.541 149.335 110.988C147.859 109.92 146.021 109.495 144.196 109.55V109.546Z" fill="#FF96FF" stroke="black" stroke-width="0.840969" stroke-linecap="round" stroke-linejoin="round"/>
<path d="M30.9766 172.501C72.3522 148.546 112.294 127.929 150.146 112.182C150.146 112.182 39.0036 171.147 30.9766 172.501Z" fill="#F9A000" stroke="black" stroke-width="0.840969" stroke-linecap="round" stroke-linejoin="round"/>
<path d="M125.038 124.801C125.908 126.453 111.738 135.612 93.3878 145.253C75.0379 154.895 59.4631 161.37 58.5927 159.718C57.7223 158.065 71.8927 148.907 90.2426 139.266C108.593 129.624 124.167 123.148 125.038 124.801Z" fill="#00B547" stroke="black" stroke-width="0.840969" stroke-linecap="round" stroke-linejoin="round"/>
<path d="M64.9062 125.226L64.9315 121.879C64.9525 122.939 64.9441 124.044 64.9062 125.226Z" fill="#50C0F0" stroke="black" stroke-width="0.840969" stroke-linecap="round" stroke-linejoin="round"/>
<path d="M83.6099 123.495L83.5889 127.523L83.5762 129.756L83.5048 142.825V143.577L83.4838 147.046V147.143C83.4838 147.551 83.2525 147.921 82.8993 148.106L70.6338 154.422H70.6295L62.7707 158.471C62.3754 158.677 61.9676 158.425 61.8667 158.067V158.059C61.833 157.933 61.8414 157.785 61.9129 157.638C62.3712 156.659 63.0903 155.599 64.398 154.363L64.419 154.342C64.5031 154.266 64.583 154.19 64.6755 154.11L64.6839 153.581L64.7932 140.361L64.8143 137.901V137.892L64.9152 125.265C68.6911 125.438 72.4545 125.681 76.222 125.143C78.7323 124.786 81.2006 124.218 83.6183 123.491L83.6099 123.495Z" fill="#50C0F0" stroke="black" stroke-width="0.840969" stroke-linecap="round" stroke-linejoin="round"/>
<path d="M122.342 126.834C122.279 127.132 122.098 127.401 121.787 127.578L104.232 137.371C103.588 137.732 102.836 137.69 102.255 137.325C101.948 137.14 101.696 136.866 101.524 136.521L100.695 134.831L100.346 134.129L97.7519 128.843V128.835L95.4518 124.168L94.5898 122.423L93.2148 119.618C94.9346 118.756 96.6208 117.818 98.2649 116.826C101.763 114.711 105.094 112.327 108.285 109.77L110.337 114.08V114.089L111.279 116.057L112.09 117.759L115.984 125.946C117.611 125.219 119.096 125.08 120.508 125.29C120.593 125.303 120.672 125.316 120.752 125.328C121.009 125.374 121.257 125.425 121.505 125.488C122.161 125.652 122.468 126.278 122.346 126.834H122.342Z" fill="#50C0F0" stroke="black" stroke-width="0.840969" stroke-linecap="round" stroke-linejoin="round"/>
<path d="M64.9062 125.226L64.9315 121.879C64.9525 122.939 64.9441 124.044 64.9062 125.226Z" fill="#00B547" stroke="black" stroke-width="0.840969" stroke-linecap="round" stroke-linejoin="round"/>
<path d="M46.9203 117.018L42.7659 118.818L33.141 122.994C31.7114 124.911 30.513 126.168 29.5207 126.95C27.8051 128.313 25.4294 126.433 26.3376 124.444L26.8842 123.237C27.5654 121.753 26.9347 120 25.463 119.293L17.5705 115.463C15.0392 114.02 16.3259 111.704 17.1963 111.224C17.9616 110.804 18.9539 111.115 18.9539 111.115C17.129 107.246 20.6947 107.89 20.6947 107.89C20.3247 106.485 20.9428 105.695 21.624 105.556C22.2757 105.422 22.9863 105.876 23.0662 105.918C22.6079 104.803 22.5743 103.941 23.0999 103.483C24.3361 102.386 25.463 103.113 25.463 103.113L32.0099 106.241L35.849 104.194C36.3956 105.161 36.959 106.12 37.5561 107.057C40.0622 110.959 43.1612 114.411 46.9203 117.014V117.018Z" fill="#50C0F0" stroke="black" stroke-width="0.840969" stroke-linecap="round" stroke-linejoin="round"/>
<path d="M18.9531 111.119L24.8483 113.718" stroke="black" stroke-width="0.840969" stroke-linecap="round" stroke-linejoin="round"/>
<path d="M20.6875 107.885C20.6875 107.885 24.825 109.567 26.3724 110.724L20.6875 107.885Z" fill="#FF96FF"/>
<path d="M20.6875 107.885C20.6875 107.885 24.825 109.567 26.3724 110.724" stroke="black" stroke-width="0.840969" stroke-linecap="round" stroke-linejoin="round"/>
<path d="M23.0703 105.926C23.0703 105.926 26.6654 107.128 27.9521 108.642" stroke="black" stroke-width="0.840969" stroke-linecap="round" stroke-linejoin="round"/>
<path d="M131.479 66.9409C131.479 67.0922 131.479 67.2394 131.47 67.395C131.47 67.6431 131.462 67.887 131.458 68.1266C131.449 68.4 131.437 68.6691 131.42 68.9298C131.42 68.955 131.42 68.9886 131.411 69.0139C131.403 69.1778 131.39 69.346 131.378 69.5058C131.331 70.1744 131.268 70.8135 131.189 71.4316C131.18 71.4779 131.176 71.5157 131.167 71.5536C131.109 72.0077 131.033 72.445 130.949 72.8739C130.94 72.9202 130.928 72.9706 130.924 73.0127C130.873 73.2565 130.827 73.492 130.772 73.7275C130.734 73.9125 130.688 74.0975 130.646 74.2741C130.583 74.5348 130.512 74.7913 130.44 75.0394H130.432C129.355 78.8111 127.513 81.5905 125.209 83.6005H125.201C121.74 86.6237 117.283 87.9104 112.973 88.3183C113.516 84.5045 113.419 80.5561 112.775 76.7928C112.481 75.0646 112.414 73.3196 112.208 71.5788C112.149 71.0742 112.082 70.5528 111.977 70.0314C113.406 69.4638 114.584 68.5345 115.399 67.2604C116.459 65.6037 116.636 63.5307 116.139 61.6301C114.815 56.5255 114.71 55.735 115.16 53.8975C115.715 51.6016 118.805 51.1307 120.163 53.0607L122.35 57.0721V57.0805L122.447 57.2529L122.758 57.8332C122.871 58.0434 122.993 58.2537 123.115 58.4597C123.191 58.5816 123.262 58.7078 123.346 58.8297C123.607 59.2586 123.889 59.6665 124.187 60.0659C124.276 60.1795 124.364 60.3014 124.457 60.415C124.541 60.5369 124.633 60.6504 124.73 60.764C124.852 60.9153 124.978 61.0709 125.113 61.2181C125.234 61.3568 125.356 61.4998 125.483 61.6386C125.768 61.9581 126.067 62.2693 126.382 62.5678H126.387C126.513 62.694 126.647 62.8159 126.782 62.9379C126.929 63.0766 127.089 63.2112 127.24 63.3457L128.661 64.5567L131.466 66.9493L131.479 66.9409Z" fill="#50C0F0" stroke="black" stroke-width="0.840969" stroke-linecap="round" stroke-linejoin="round"/>
<path d="M111.992 70.0151V70.0278C110.116 70.772 107.829 70.894 105.398 70.3515C107.829 70.8813 110.116 70.7594 111.992 70.0151Z" fill="#00B547" stroke="black" stroke-width="0.840969" stroke-linecap="round" stroke-linejoin="round"/>
<path d="M122.361 57.0684C121.276 58.3887 120.86 60.1799 120.801 61.8955C120.667 65.9111 122.159 69.6703 125.296 72.2352C126.823 73.4798 128.584 74.3881 130.443 75.0399C131.103 72.7356 131.473 70.0571 131.477 66.9413L127.252 63.342C125.435 61.7946 123.913 59.9234 122.773 57.8294L122.361 57.0726V57.0684Z" fill="#00B547" stroke="black" stroke-width="0.840969" stroke-linecap="round" stroke-linejoin="round"/>
<path d="M131.703 61.1408C132.855 62.0742 133.726 64.328 133.343 65.2531C133.822 67.8685 133.175 70.2274 131.43 71.2955C129.575 72.435 126.985 71.8085 124.774 69.9415C124 69.2898 123.277 68.4866 122.646 67.549C122.541 67.3976 122.444 67.242 122.343 67.0822C121.59 65.8544 121.086 64.5719 120.834 63.3441C120.274 60.6362 120.909 58.1764 122.701 57.0747C124.429 56.0151 126.905 56.5659 129.008 58.1469C130.286 58.7566 131.22 59.7195 131.699 61.1408H131.703Z" fill="#50C0F0" stroke="black" stroke-width="0.840969" stroke-linecap="round" stroke-linejoin="round"/>
<path d="M120.863 63.3917C122.882 62.9418 127.246 61.571 129.012 58.144" stroke="black" stroke-width="0.840969" stroke-linecap="round" stroke-linejoin="round"/>
<path d="M122.652 67.5451C124.553 66.9396 129.78 64.9381 131.71 61.137" stroke="black" stroke-width="0.840969" stroke-linecap="round" stroke-linejoin="round"/>
<path d="M124.824 69.9893C127.2 69.5562 131.636 68.3578 133.343 65.3135" stroke="black" stroke-width="0.840969" stroke-linecap="round" stroke-linejoin="round"/>
<path d="M85.6658 53.8704C80.6158 69.3358 57.8465 78.1744 42.0616 71.7074C38.479 70.2399 35.6618 67.1956 34.2111 63.6299C32.3988 59.1769 34.1186 55.1319 33.4416 50.6117C32.5082 44.3885 25.0908 23.0531 38.8112 27.5902C41.023 28.3218 43.2095 29.3814 45.0975 30.7564C47.2966 32.3585 48.2721 34.6375 51.1819 35.0369C54.1673 35.4448 59.8144 33.2457 58.8305 29.3436C57.5774 24.3608 58.7085 14.8285 66.1133 18.0788C73.4549 21.3039 81.0362 30.3023 84.3244 37.4043C87.087 43.3751 87.272 48.955 85.6658 53.8662V53.8704Z" fill="#00C7A9" stroke="black" stroke-width="0.840969" stroke-miterlimit="10"/>
<path d="M82.2908 69.3738C82.1142 69.5 81.9292 69.6219 81.7315 69.7481C80.4322 70.5848 79.011 71.4637 77.4931 72.3341C75.9499 73.2339 74.3058 74.1169 72.586 74.9663C70.9714 75.7694 69.2852 76.5263 67.557 77.2159C65.8625 77.8929 64.1259 78.4899 62.3682 78.9861C60.5896 79.4949 58.7857 79.8986 56.9734 80.1509C55.0812 80.4242 53.1807 80.5377 51.3053 80.462C50.8596 80.441 50.4055 80.4116 49.9682 80.3737C49.0683 80.2896 48.2105 80.0121 47.4495 79.5706C46.3142 78.9188 45.3891 77.9181 44.834 76.6903L44.0057 74.8654C43.5768 73.9277 44.3295 72.8765 45.3512 72.9858C45.7086 73.0236 46.1039 73.0615 46.537 73.0951H46.558C47.2602 73.1456 48.055 73.1918 48.9296 73.2171C50.5737 73.2549 52.5037 73.2171 54.6355 73.0279C56.3553 72.8681 58.2054 72.6116 60.1439 72.2121C61.0605 72.0229 61.9982 71.7958 62.9569 71.5351C65.4125 70.8666 67.9607 69.9541 70.5425 68.7305C71.7619 68.146 72.9855 67.4943 74.2007 66.7542C74.6086 66.5188 75.0122 66.2623 75.4201 66.0016C76.9801 64.9924 78.5359 63.8487 80.0622 62.5536C80.6425 62.0574 81.2143 61.5402 81.782 61.0062L81.7904 60.9978C82.5557 60.2788 83.3083 59.5177 84.0526 58.7146C84.2376 58.5169 84.5572 58.5169 84.7296 58.723C85.2468 59.3159 86.176 60.5983 86.4115 62.2551C86.6974 64.2566 85.9785 66.8047 82.2992 69.3696L82.2908 69.3738Z" fill="#FF000A" stroke="black" stroke-width="0.840969" stroke-miterlimit="10"/>
<path d="M82.2995 69.3739L80.0625 62.5579" stroke="black" stroke-width="0.840969" stroke-miterlimit="10"/>
<path d="M77.4952 72.3381L75.418 66.0056" stroke="black" stroke-width="0.840969" stroke-miterlimit="10"/>
<path d="M72.5871 74.9706L70.5352 68.7349" stroke="black" stroke-width="0.840969" stroke-miterlimit="10"/>
<path d="M67.5562 77.22L65.4453 70.7908" stroke="black" stroke-width="0.840969" stroke-miterlimit="10"/>
<path d="M62.3689 78.9948L60.1445 72.2166" stroke="black" stroke-width="0.840969" stroke-miterlimit="10"/>
<path d="M56.9788 80.159L54.6367 73.0317" stroke="black" stroke-width="0.840969" stroke-miterlimit="10"/>
<path d="M51.3096 80.4705L48.9297 73.2256" stroke="black" stroke-width="0.840969" stroke-miterlimit="10"/>
<path d="M77.4023 48.6613L81.9057 44.3513" stroke="black" stroke-width="0.840969" stroke-miterlimit="10"/>
<path d="M78.9414 50.9857L83.7812 49.657" stroke="black" stroke-width="0.840969" stroke-miterlimit="10"/>
<path d="M36.1288 62.8569L31.1797 63.0672" stroke="black" stroke-width="0.840969" stroke-miterlimit="10"/>
<path d="M37.0813 65.3745L32.8555 67.7797" stroke="black" stroke-width="0.840969" stroke-miterlimit="10"/>
<path d="M53.3789 60.5306C53.3789 60.5306 56.9236 62.3176 59.8838 58.3945" stroke="black" stroke-width="0.840969" stroke-miterlimit="10"/>
<path d="M82.512 34.6127L70.36 37.863C69.8218 37.0557 68.8042 36.7151 67.8876 37.0389L55.0502 41.5506C54.0705 41.8954 53.4818 42.8962 53.6626 43.918C53.7845 44.6202 53.3725 45.3014 52.6955 45.5242L51.6863 45.8564C51.0135 46.0793 50.2777 45.7723 49.9581 45.1416C49.5166 44.2628 48.4906 43.8465 47.5614 44.1661L32.5375 49.3254C31.5493 49.666 30.9775 50.6962 31.2129 51.7138L31.6503 53.6017C31.7932 54.2283 32.445 54.5899 33.0547 54.3922L33.349 54.2955C33.349 54.2955 35.7374 63.8321 44.412 60.5187C53.0865 57.2053 51.8083 50.1916 51.8083 50.1916L55.1679 49.0899C55.1679 49.0899 59.4863 57.1506 66.685 53.8582C73.8795 50.5658 73.3413 46.0919 72.9965 41.9291L83.5885 37.9681C84.4715 37.6359 84.9382 36.6646 84.6439 35.769C84.3537 34.8818 83.4161 34.3772 82.5163 34.6169L82.512 34.6127Z" fill="black"/>
<path d="M55.5089 34.3044C48.7055 36.6087 48.0874 35.3304 42.5664 39.6656" stroke="black" stroke-width="0.840969" stroke-miterlimit="10"/>
</svg>
