<svg width="118" height="105" viewBox="0 0 118 105" fill="none" xmlns="http://www.w3.org/2000/svg">
<path d="M104.859 67.118C104.898 66.7867 104.923 66.4497 104.923 66.1042C104.923 61.3523 101.131 57.5009 96.452 57.5009C94.358 57.5009 92.4452 58.2769 90.9673 59.5541C90.7749 52.4715 84.9723 46.6123 77.5692 46.2668C74.7028 46.1337 71.9981 46.8445 69.7144 48.1755C67.5506 41.2714 60.7415 36.0409 52.4461 35.6529C44.1061 35.2621 36.8173 39.8838 34.0707 46.618C33.4936 46.516 32.9052 46.4481 32.3057 46.4198C24.4732 46.0516 17.8285 52.2053 17.4688 60.1601C17.3907 61.8592 17.6082 63.5046 18.0739 65.0423C8.36202 66.4582 1.02025 72.2409 0.691227 79.4991C0.39566 85.9983 5.80509 91.8489 13.791 94.6638C14.3877 99.2798 18.1631 102.944 22.9033 103.165C26.2103 103.321 29.2023 101.763 31.0537 99.2685C33.9313 102.066 37.7737 103.862 42.065 104.063C48.1854 104.349 53.698 101.324 56.9298 96.5499C58.8956 100.667 63.6553 103.703 69.3408 103.969C74.7558 104.224 79.5573 101.896 82.0167 98.2943C82.8755 98.4133 83.751 98.4982 84.6405 98.5407C88.0312 98.6993 91.2768 98.2575 94.2353 97.3371C95.9724 97.8724 97.8323 98.1669 99.7674 98.1669C109.343 98.1669 117.105 91.0588 117.105 82.2913C117.105 75.1465 111.95 69.106 104.859 67.1124V67.118Z" fill="white" stroke="#040203" stroke-width="1.07859" stroke-linecap="round" stroke-linejoin="round"/>
<path d="M41.3516 60.1588C41.6555 65.9274 46.5045 70.3536 52.1844 70.0478C57.8643 69.7391 62.2225 64.8145 61.9213 59.0459" stroke="#040203" stroke-width="1.07859" stroke-linecap="round" stroke-linejoin="round"/>
<path d="M36.2422 73.1088C40.0901 72.8993 43.0737 71.0642 44.6714 67.7905" stroke="#040203" stroke-width="1.07859" stroke-linecap="round" stroke-linejoin="round"/>
<path d="M25.6696 82.2949C24.61 86.1718 26.8435 90.1874 30.6607 91.2635C33.1954 91.9772 35.7885 91.2182 37.5564 89.4936" stroke="#040203" stroke-width="1.07859" stroke-linecap="round" stroke-linejoin="round"/>
<g clip-path="url(#clip0_3066_21250)">
<path d="M8.11709 45.7881C8.01961 46.3731 7.96875 46.9644 7.96875 47.5642C7.96875 59.3932 27.211 68.9813 50.9481 68.9813C74.6852 68.9813 93.9275 59.3932 93.9275 47.5642C93.9275 46.9665 93.8766 46.3752 93.7791 45.7881H8.11709Z" fill="#00AB44" stroke="black" stroke-width="1.23455" stroke-miterlimit="10"/>
<path d="M93.9415 50.0036C93.9415 55.6066 74.6654 60.1472 50.8859 60.1472C27.1064 60.1472 7.82812 55.6045 7.82812 50.0036V45.634H93.9415V50.0036Z" fill="#FFC952" stroke="black" stroke-width="1.23455" stroke-miterlimit="10"/>
<path d="M50.8838 55.7777C74.6628 55.7777 93.9394 51.2363 93.9394 45.6341C93.9394 40.0319 74.6628 35.4905 50.8838 35.4905C27.1048 35.4905 7.82812 40.0319 7.82812 45.6341C7.82812 51.2363 27.1048 55.7777 50.8838 55.7777Z" fill="#00AB44" stroke="black" stroke-width="1.23455" stroke-miterlimit="10"/>
<path d="M21.4804 60.6133L20.7072 59.8427C19.8506 58.9891 18.4619 58.9891 17.6053 59.8428L9.57637 67.8442C8.71981 68.6978 8.7198 70.0818 9.57637 70.9355L10.3496 71.706C11.2062 72.5597 12.5949 72.5597 13.4515 71.706L21.4804 63.7046C22.337 62.851 22.337 61.467 21.4804 60.6133Z" fill="#EF4434" stroke="black" stroke-width="1.23455" stroke-linecap="round" stroke-linejoin="round"/>
<path d="M92.2383 71.7022L93.0116 70.9316C93.8681 70.078 93.8681 68.694 93.0116 67.8404L84.9826 59.8389C84.1261 58.9853 82.7373 58.9853 81.8807 59.8389L81.1075 60.6095C80.2509 61.4631 80.2509 62.8471 81.1075 63.7008L89.1364 71.7022C89.993 72.5558 91.3818 72.5558 92.2383 71.7022Z" fill="#EF4434" stroke="black" stroke-width="1.23455" stroke-linecap="round" stroke-linejoin="round"/>
<mask id="mask0_3066_21250" style="mask-type:luminance" maskUnits="userSpaceOnUse" x="7" y="11" width="87" height="45">
<path d="M93.9415 45.6343C93.9415 51.2372 74.6654 55.7779 50.8859 55.7779C27.1064 55.7779 7.82812 51.2372 7.82812 45.6343C7.82812 40.0313 27.1043 11.9595 50.8838 11.9595C74.6632 11.9595 93.9394 40.0313 93.9394 45.6343H93.9415Z" fill="white"/>
</mask>
<g mask="url(#mask0_3066_21250)">
<path d="M79.7997 30.4505C72.2702 25.1537 64.3 23.8295 61.9371 27.2129L55.1472 37.0693L55.1895 37.0988C53.0767 40.6743 57.3363 47.3058 64.7429 52.5159C72.1982 57.7599 80.0837 59.1073 82.5314 55.8486L82.6055 55.8993L89.3954 45.895C91.61 42.5117 87.4755 35.4494 79.7997 30.4483V30.4505Z" fill="#F999B4" stroke="black" stroke-width="1.23455" stroke-linecap="round" stroke-linejoin="round"/>
<path d="M89.3944 45.899L82.6045 55.9032C80.2416 59.2866 72.2713 57.8166 64.7418 52.6656C63.2647 51.635 61.936 50.6065 60.6094 49.428C61.6435 49.2802 62.9723 48.6931 64.301 47.2211C66.6639 44.7205 67.8443 44.1313 68.8763 44.2792C69.9105 44.2792 71.0909 45.3098 73.0088 47.8103C74.9288 50.3108 77.5841 51.0479 79.2095 49.7237C79.3579 49.5759 79.5041 49.5759 79.6524 49.4302C80.9812 48.3995 81.4241 47.9581 83.9332 43.2506C84.5245 42.0743 86.5907 40.1609 89.3944 41.0437C90.1319 42.9571 90.1319 44.5748 89.3944 45.899Z" stroke="black" stroke-width="1.23455" stroke-linecap="round" stroke-linejoin="round"/>
<path fill-rule="evenodd" clip-rule="evenodd" d="M88.3623 45.3103C86.2961 48.2523 79.0612 46.7824 72.1229 41.927C65.0364 37.0717 60.9039 30.8922 62.9702 27.9502C65.0364 25.0083 72.2713 26.4782 79.2095 31.3336C86.1478 36.1889 90.2823 42.3684 88.3623 45.3103ZM81.867 40.8964C80.8328 42.3684 77.2917 41.6313 73.7484 39.2787C70.3534 36.9238 68.2872 33.8362 69.3193 32.3642C70.3534 30.8922 73.8946 31.6292 77.4379 33.9819C80.8328 36.3367 82.8991 39.4244 81.867 40.8964Z" fill="white" stroke="black" stroke-width="1.23455" stroke-linecap="round" stroke-linejoin="round"/>
<path d="M61.3391 30.5988C61.3391 30.4509 61.1908 30.3052 61.0446 30.4509C60.8983 30.5967 60.75 30.5988 60.75 30.7445C60.8983 31.1859 61.0446 31.4794 61.0446 31.7751C61.0446 31.9229 61.1929 32.0687 61.3391 31.9229C61.4875 31.9229 61.6337 31.7751 61.4875 31.6294C61.4875 31.3358 61.4875 31.0402 61.3391 30.5988Z" fill="white"/>
<path d="M62.0757 32.9528C62.0757 32.8049 61.9274 32.6592 61.7812 32.8049C61.6349 32.9507 61.6328 32.9528 61.6328 33.0985C63.2561 36.7775 66.6511 40.7479 71.0802 43.692C71.2285 43.8398 71.3747 43.692 71.5231 43.692C71.6714 43.5441 71.5231 43.3984 71.5231 43.2506C66.9477 40.3086 63.699 36.4839 62.0757 32.9528Z" fill="white"/>
<path d="M79.9508 47.3691C79.8025 47.3691 79.6562 47.3691 79.6562 47.517C79.6562 47.6648 79.6563 47.8105 79.8046 47.8105C80.2475 47.9584 80.8388 48.1041 81.2817 48.2519C81.43 48.2519 81.5762 48.2519 81.5762 48.1041C81.5762 47.9563 81.5762 47.8105 81.4279 47.8105C80.985 47.6627 80.3937 47.517 79.9508 47.3691Z" fill="white"/>
<path d="M82.5993 47.9583C82.4509 47.9583 82.3047 48.1061 82.3047 48.2518C82.3047 48.3975 82.453 48.5454 82.5993 48.5454C83.7796 48.6932 85.1084 48.8389 86.1425 48.6932C86.2909 48.6932 86.4371 48.5454 86.4371 48.3996C86.4371 48.2539 86.2888 48.1061 86.1425 48.1061C84.9622 48.2539 83.7796 48.1061 82.5993 47.9583Z" fill="white"/>
</g>
<mask id="mask1_3066_21250" style="mask-type:luminance" maskUnits="userSpaceOnUse" x="7" y="11" width="87" height="45">
<path d="M7.42969 45.6343C7.42969 51.2372 26.7059 55.7779 50.4853 55.7779C74.2648 55.7779 93.541 51.2372 93.541 45.6343C93.541 40.0313 74.2648 11.9595 50.4853 11.9595C26.7059 11.9595 7.42969 40.0313 7.42969 45.6343Z" fill="white"/>
</mask>
<g mask="url(#mask1_3066_21250)">
<path d="M21.5659 30.4505C29.0954 25.1537 37.0656 23.8295 39.4285 27.2129L46.2184 37.0693L46.1761 37.0988C48.2889 40.6743 44.0293 47.3058 36.6227 52.5159C29.1674 57.7599 21.2819 59.1073 18.8342 55.8486L18.76 55.8993L11.9702 45.895C9.7556 42.5117 13.8901 35.4494 21.5659 30.4483V30.4505Z" fill="#F999B4" stroke="black" stroke-width="1.23455" stroke-linecap="round" stroke-linejoin="round"/>
<path d="M11.9672 41.0437C14.773 40.1609 16.8392 42.0743 17.4283 43.2506C19.9375 47.9581 20.3804 48.3995 21.7091 49.4302C21.8574 49.578 22.0037 49.578 22.152 49.7237C23.7753 51.0479 26.4328 50.3129 28.3528 47.8103C30.2728 45.3098 31.4532 44.2792 32.4852 44.2792C33.5194 44.1313 34.6998 44.7205 37.0605 47.2211C38.3893 48.6931 39.718 49.2802 40.7522 49.428C39.4234 50.6044 38.0947 51.635 36.6197 52.6656C29.0903 57.8145 21.12 59.2866 18.7571 55.9032L11.9672 45.899C11.2297 44.5748 11.2297 42.9571 11.9672 41.0437Z" stroke="black" stroke-width="1.23455" stroke-linecap="round" stroke-linejoin="round"/>
<path fill-rule="evenodd" clip-rule="evenodd" d="M22.1624 31.3336C29.1006 26.4782 36.3334 25.0083 38.4017 27.9502C40.468 30.8922 36.3355 37.0717 29.2489 41.927C22.3107 46.7824 15.0779 48.2523 13.0096 45.3103C11.0896 42.3684 15.2241 36.1889 22.1624 31.3336ZM23.934 33.9819C27.4773 31.6271 31.0206 30.8922 32.0526 32.3642C33.0868 33.8362 31.0185 36.9238 27.6235 39.2787C24.0802 41.6335 20.5369 42.3684 19.5049 40.8964C18.4707 39.4244 20.5391 36.3367 23.934 33.9819Z" fill="white" stroke="black" stroke-width="1.23455" stroke-linecap="round" stroke-linejoin="round"/>
<path d="M39.8661 31.6294C39.7178 31.7772 39.8661 31.9229 40.0145 31.9229C40.1628 32.0708 40.309 31.9229 40.309 31.7751C40.309 31.4816 40.4574 31.1859 40.6036 30.7445C40.6036 30.5967 40.4553 30.5967 40.309 30.4509C40.1628 30.3052 40.0145 30.4509 40.0145 30.5988C39.8661 31.0402 39.8661 31.3337 39.8661 31.6294Z" fill="white"/>
<path d="M29.8316 43.2505C29.8316 43.3983 29.6832 43.5441 29.8316 43.6919C29.9799 43.6919 30.1261 43.8397 30.2745 43.6919C34.7036 40.75 38.0985 36.7774 39.7218 33.0984C39.7218 32.9999 39.6724 32.902 39.5735 32.8049C39.4251 32.6571 39.2789 32.8049 39.2789 32.9527C37.6556 36.4839 34.4069 40.3086 29.8316 43.2505Z" fill="white"/>
<path d="M19.9452 47.8105C19.7969 47.8105 19.7969 47.9584 19.7969 48.1041C19.7969 48.2498 19.9452 48.2519 20.0914 48.2519C20.5344 48.1041 21.1256 47.9584 21.5685 47.8105C21.7169 47.8105 21.7169 47.6627 21.7169 47.517C21.7169 47.3713 21.5685 47.3691 21.4223 47.3691C20.9794 47.517 20.3881 47.6627 19.9452 47.8105Z" fill="white"/>
<path d="M15.2164 48.1061C15.0681 48.1061 14.9219 48.2539 14.9219 48.3996C14.9219 48.5454 15.0702 48.6932 15.2164 48.6932C16.2506 48.841 17.5793 48.6932 18.7597 48.5454C18.9081 48.5454 19.0543 48.3975 19.0543 48.2518C19.0543 48.1061 18.906 47.9583 18.7597 47.9583C17.5793 48.1061 16.3968 48.2518 15.2164 48.1061Z" fill="white"/>
</g>
<path d="M54.3291 55.746C56.2979 55.7101 58.2306 55.6404 60.1167 55.5433L39.7554 2.30987C39.2172 0.901211 37.6341 0.193713 36.2185 0.730145C34.8029 1.26658 34.0951 2.84419 34.6334 4.25496L54.327 55.746H54.3291Z" fill="#EF4434" stroke="black" stroke-width="1.23455" stroke-linecap="round" stroke-linejoin="round"/>
<path d="M46.6441 55.7294L66.3335 4.25522C66.8718 2.84655 66.164 1.26894 64.7484 0.730397C63.3349 0.193966 61.7518 0.899352 61.2114 2.31012L40.8672 55.5034C42.749 55.609 44.6775 55.685 46.6441 55.7315V55.7294Z" fill="#EF4434" stroke="black" stroke-width="1.23455" stroke-linecap="round" stroke-linejoin="round"/>
</g>
<defs>
<clipPath id="clip0_3066_21250">
<rect width="86.8297" height="72.4267" fill="white" transform="translate(7.42188 0.234375)"/>
</clipPath>
</defs>
</svg>
