<svg width="1120" height="135" viewBox="0 0 1120 135" fill="none" xmlns="http://www.w3.org/2000/svg">
<path d="M157.585 66.7473C173.409 66.7473 186.237 53.9167 186.237 38.0894C186.237 22.262 173.409 9.4314 157.585 9.4314C141.761 9.4314 128.934 22.262 128.934 38.0894C128.934 53.9167 141.761 66.7473 157.585 66.7473Z" fill="url(#paint0_linear_3115_14223)" stroke="black" stroke-width="0.842739" stroke-miterlimit="10"/>
<path d="M168.161 64.7226C178.941 60.4361 186.51 49.8009 186.231 37.426C185.892 22.403 173.776 10.0601 158.764 9.45539C153.637 9.24759 148.798 10.3985 144.562 12.5644C155.105 15.8653 163.689 23.5939 168.14 33.5737C170.684 39.2749 169.999 45.461 166.731 50.2778C164.257 53.9249 164.139 58.6777 166.635 62.3089L166.827 62.5887L168.159 64.7253" fill="#EC3624"/>
<path d="M179.074 48.4903C179.074 48.4903 181.847 43.8681 181.541 38.0896" stroke="white" stroke-width="0.842739" stroke-linecap="round" stroke-linejoin="round"/>
<path d="M168.161 64.7226C178.941 60.4361 186.51 49.8009 186.231 37.426C185.892 22.403 173.776 10.0601 158.764 9.45539C153.637 9.24759 148.798 10.3985 144.562 12.5644C155.105 15.8653 163.689 23.5939 168.14 33.5737C170.684 39.2749 169.999 45.461 166.731 50.2778C164.257 53.9249 164.139 58.6777 166.635 62.3089L166.827 62.5887L168.159 64.7253" stroke="black" stroke-width="0.842739" stroke-miterlimit="10"/>
<path fill-rule="evenodd" clip-rule="evenodd" d="M152.504 23.3066L166.911 48.2002L171.684 39.8722L162.047 23.3066H152.504Z" fill="white" stroke="black" stroke-width="0.842739" stroke-miterlimit="10"/>
<path fill-rule="evenodd" clip-rule="evenodd" d="M152.504 40.3413L157.461 48.2005H167.38L162.42 40.3413H152.504Z" fill="white" stroke="black" stroke-width="0.842739" stroke-miterlimit="10"/>
<path fill-rule="evenodd" clip-rule="evenodd" d="M148.202 31.1685L143.242 39.6857L148.202 48.2002L158.211 31.1685H148.202Z" fill="white" stroke="black" stroke-width="0.842739" stroke-miterlimit="10"/>
<path d="M719.598 73.2993C739.556 73.2993 755.735 57.1166 755.735 37.1543C755.735 17.192 739.556 1.00928 719.598 1.00928C699.64 1.00928 683.461 17.192 683.461 37.1543C683.461 57.1166 699.64 73.2993 719.598 73.2993Z" fill="url(#paint1_linear_3115_14223)" stroke="black" stroke-width="0.842739" stroke-miterlimit="10"/>
<path opacity="0.33" d="M698.572 37.1537C698.572 19.7819 710.823 5.28153 727.153 1.80416C724.714 1.2852 722.188 1.00488 719.598 1.00488C699.64 1.00488 683.461 17.1872 683.461 37.1499C683.461 57.1126 699.64 73.2949 719.598 73.2949C722.192 73.2949 724.718 73.0146 727.153 72.4957C710.823 69.0183 698.572 54.5179 698.572 37.1461V37.1537Z" fill="black" stroke="black" stroke-width="0.842739" stroke-miterlimit="10"/>
<path d="M698.572 37.1537C698.572 19.782 710.823 5.28153 727.153 1.80416C724.714 1.2852 722.188 1.00488 719.598 1.00488C699.64 1.00488 683.461 17.1872 683.461 37.1499C683.461 57.1126 699.64 73.2949 719.598 73.2949C722.192 73.2949 724.718 73.0146 727.153 72.4957C710.823 69.0183 698.572 54.5179 698.572 37.1461V37.1537Z" stroke="black" stroke-width="0.842739" stroke-miterlimit="10"/>
<path d="M689.369 37.8123C689.369 37.8123 687.07 26.3119 696.595 17.4404" stroke="white" stroke-width="0.842739" stroke-linecap="round" stroke-linejoin="round"/>
<path d="M722.427 51.3623C718.92 51.3623 716.095 50.6274 713.834 49.1009C711.8 47.6841 710.501 45.7674 709.933 43.2711C709.816 42.8772 710.1 42.5363 710.444 42.4226L715.25 41.1764C715.644 41.0589 716.099 41.343 716.212 41.7446C716.439 42.6499 716.833 43.3848 717.284 43.9492C717.905 44.684 718.64 45.1954 719.488 45.5325C720.393 45.8166 721.355 45.9833 722.427 45.9833C724.01 45.9833 725.199 45.6992 725.934 45.1878C726.669 44.6196 727.066 43.8886 727.066 43.0931C727.066 42.2446 726.725 41.6196 725.994 41.2256C725.26 40.7748 724.127 40.3771 722.544 40.093L721.018 39.8089C719.151 39.468 717.458 38.9604 715.875 38.3354C714.349 37.7141 713.103 36.8088 712.141 35.68C711.179 34.5474 710.725 33.1458 710.725 31.3882C710.725 28.7328 711.687 26.6949 713.664 25.2819C715.584 23.8652 718.185 23.1304 721.351 23.1304C724.351 23.1304 726.835 23.8084 728.812 25.1077C730.562 26.2971 731.811 27.8237 732.489 29.6306C732.607 30.0245 732.372 30.426 732.039 30.5359L727.233 32.0094C726.839 32.1269 726.385 31.892 726.214 31.4412C725.873 30.4791 725.366 29.801 724.631 29.2897C723.783 28.7215 722.707 28.4411 721.408 28.4411C720.109 28.4411 719.147 28.6684 718.409 29.1192C717.731 29.57 717.39 30.1381 717.39 30.9298C717.39 31.7783 717.731 32.4564 718.462 32.8541C719.197 33.2481 720.162 33.5322 721.401 33.7595L722.927 34.0436C724.961 34.3845 726.771 34.8921 728.354 35.5171C729.994 36.0853 731.293 36.9338 732.255 38.0626C733.217 39.1346 733.728 40.6082 733.728 42.4757C733.728 45.3053 732.709 47.4531 730.672 49.0364C728.638 50.563 725.922 51.2979 722.529 51.2979L722.423 51.3547L722.427 51.3623Z" fill="white" stroke="black" stroke-width="0.842739" stroke-miterlimit="10"/>
<path d="M1136.04 63.2597C1136.02 62.1991 1138.14 58.9902 1138.68 57.1275C1139.74 53.5198 1139.01 49.3636 1136.61 46.9071C1132.64 42.8462 1126.26 43.5849 1120.65 45.212C1122.43 39.0798 1122.34 32.6848 1115.85 30.4911C1107.1 27.5406 1098.56 34.0173 1091.06 40.6299C1091.31 36.6369 1090.49 32.6757 1088.04 29.3445C1081.76 20.8373 1068.6 28.4108 1062.12 32.2587C1049.22 39.9229 1036.81 47.2108 1023.11 52.7039C1014.73 56.0669 1006.18 58.7727 997.534 60.8168C999.701 55.1469 1000.56 48.3167 994.779 45.4251C990.582 43.3266 985.56 43.9203 980.842 45.2438C982.641 39.098 982.569 32.6712 976.056 30.4775C967.304 27.527 958.77 34.0037 951.273 40.6163C951.522 36.6233 950.702 32.6621 948.245 29.3309C941.968 20.8237 928.806 28.3972 922.33 32.2451C909.426 39.9093 897.012 47.1972 883.325 52.6858C872.619 56.9779 861.665 60.2185 850.556 62.3396C852.582 56.7694 853.235 50.2429 847.619 47.4374C843.422 45.3389 838.401 45.9327 833.682 47.2561C835.482 41.1103 835.409 34.6835 828.896 32.4853C820.149 29.5348 811.61 36.0115 804.114 42.6241C804.363 38.6311 803.543 34.6699 801.086 31.3387C794.813 22.8315 781.647 30.405 775.17 34.2529C762.267 41.9171 749.853 49.205 736.166 54.6982C727.781 58.0611 719.237 60.7624 710.59 62.8064C712.756 57.1365 713.608 50.3064 707.83 47.4147C703.633 45.3163 698.611 45.91 693.893 47.2289C695.692 41.0831 695.62 34.6563 689.107 32.4627C680.355 29.5122 671.82 35.9888 664.324 42.6014C664.573 38.613 663.748 34.6473 661.296 31.316C655.024 22.8089 641.857 30.3824 635.381 34.2303C622.477 41.8944 610.063 49.1823 596.376 54.6755C590.103 57.1909 583.735 59.3302 577.308 61.1159C579.878 55.2058 581.46 47.3785 575.16 44.2331C570.963 42.1346 565.941 42.7283 561.223 44.0518C563.023 37.906 562.95 31.4792 556.437 29.2855C547.685 26.335 539.151 32.8117 531.654 39.4243C531.904 35.4313 531.079 31.4701 528.627 28.1389C522.354 19.6317 509.188 27.2052 502.711 31.0531C489.808 38.7173 477.394 46.0052 463.706 51.4938C455.317 54.8568 446.773 57.5626 438.121 59.6066C440.288 53.9367 441.144 47.102 435.366 44.2149C431.169 42.121 426.147 42.7102 421.429 44.0337C423.228 37.8879 423.156 31.461 416.643 29.2674C407.895 26.3169 399.357 32.7935 391.86 39.4062C392.109 35.4132 391.285 31.452 388.833 28.1207C382.56 19.6136 369.394 27.1871 362.917 31.035C350.013 38.6991 337.599 45.9916 323.912 51.4802C313.211 55.7723 302.252 59.0084 291.143 61.134C293.169 55.5638 293.822 49.0373 288.206 46.2318C284.009 44.1334 278.988 44.7271 274.27 46.0505C276.069 39.9047 275.996 33.4779 269.483 31.2798C260.732 28.3292 252.197 34.8059 244.701 41.4185C244.95 37.4301 244.125 33.4643 241.673 30.1331C235.396 21.626 222.234 29.1994 215.758 33.0473C202.854 40.7115 190.44 47.9994 176.753 53.488C168.368 56.851 159.824 59.5568 151.172 61.5963C153.339 55.9264 154.195 49.0962 148.412 46.2092C144.215 44.1107 139.193 44.7044 134.48 46.0279C136.279 39.8821 136.202 33.4553 129.694 31.2571C120.942 28.3066 112.408 34.7832 104.911 41.3959C105.16 37.4074 104.34 33.4417 101.883 30.1104C95.6062 21.5988 82.4445 29.1768 75.9678 33.0247C63.0643 40.6888 50.6504 47.9768 36.9628 53.4654C22.0742 59.4344 6.70063 63.4092 -8.89502 65.0953C-10.6354 65.2856 -11.9362 66.6952 -12.0042 68.925C-14.0256 136.638 -16.047 204.346 -18.0684 272.058C-18.1318 274.143 -16.609 275.884 -14.9592 275.884H1136.33C1138 275.884 1139.48 274.143 1139.44 272.058C1138.3 202.46 1137.17 132.862 1136.03 63.2597H1136.04Z" fill="#74CDED" stroke="black" stroke-width="0.90646" stroke-miterlimit="10"/>
<g opacity="0.95">
<g opacity="0.3">
<path d="M303.099 79.0746C312.843 75.5122 322.334 71.2745 331.593 66.5972C340.735 61.9788 349.664 56.9479 358.511 51.7947C363.573 48.8487 368.613 45.8574 373.658 42.8842C374.913 42.1454 373.776 40.1829 372.516 40.9262C363.641 46.161 354.79 51.4321 345.793 56.4539C336.914 61.4122 327.895 66.1213 318.622 70.3046C313.328 72.6931 307.953 74.8958 302.501 76.89C301.925 77.0985 301.54 77.6605 301.707 78.286C301.862 78.8389 302.523 79.2876 303.103 79.0791L303.099 79.0746Z" fill="#DFEAE9"/>
<path d="M355.967 94.625C366.069 91.1079 375.818 86.6572 385.282 81.6853C394.745 76.7134 403.792 71.329 412.874 65.863C418.041 62.7539 423.199 59.6311 428.388 56.5673C429.644 55.8285 428.506 53.866 427.246 54.6093C418.095 60.0073 409.058 65.6002 399.88 70.9528C390.788 76.2601 381.552 81.3318 371.979 85.7236C366.545 88.2163 361.011 90.4734 355.364 92.4359C354.788 92.6353 354.403 93.2109 354.571 93.8319C354.725 94.3939 355.382 94.8244 355.967 94.625Z" fill="#DFEAE9"/>
<path d="M369.031 67.8525C379.514 62.4953 389.494 56.2408 399.543 50.1222C402.511 48.3138 405.484 46.519 408.48 44.7514C409.736 44.0126 408.598 42.0501 407.338 42.7934C397.063 48.8531 387.029 55.3207 376.636 61.1855C373.754 62.8126 370.84 64.3898 367.889 65.8991C366.588 66.5608 367.735 68.5188 369.031 67.857V67.8525Z" fill="#DFEAE9"/>
</g>
<g opacity="0.3">
<path d="M442.431 79.0746C452.175 75.5122 461.666 71.2745 470.926 66.5972C480.067 61.9788 488.996 56.9479 497.843 51.7947C502.905 48.8487 507.945 45.8574 512.99 42.8842C514.245 42.1454 513.108 40.1829 511.848 40.9262C502.973 46.161 494.122 51.4321 485.125 56.4539C476.246 61.4122 467.227 66.1213 457.954 70.3046C452.66 72.6931 447.285 74.8958 441.833 76.89C441.257 77.0985 440.872 77.6605 441.04 78.286C441.194 78.8389 441.855 79.2876 442.435 79.0791L442.431 79.0746Z" fill="#DFEAE9"/>
<path d="M495.303 94.625C505.405 91.1079 515.154 86.6572 524.618 81.6853C534.081 76.7134 543.127 71.329 552.21 65.863C557.377 62.7539 562.535 59.6311 567.724 56.5673C568.98 55.8285 567.842 53.866 566.582 54.6093C557.431 60.0073 548.394 65.6002 539.216 70.9528C530.038 76.3055 520.887 81.3318 511.315 85.7236C505.881 88.2163 500.347 90.4734 494.7 92.4359C494.124 92.6353 493.739 93.2109 493.907 93.8319C494.061 94.3939 494.718 94.8244 495.303 94.625Z" fill="#DFEAE9"/>
<path d="M508.379 67.8525C518.862 62.4953 528.842 56.2408 538.89 50.1222C541.859 48.3138 544.832 46.519 547.828 44.7514C549.083 44.0126 547.946 42.0501 546.686 42.7934C536.411 48.8531 526.377 55.3207 515.984 61.1855C513.101 62.8126 510.187 64.3898 507.237 65.8991C505.936 66.5608 507.083 68.5188 508.379 67.857V67.8525Z" fill="#DFEAE9"/>
</g>
<g opacity="0.3">
<path d="M210.002 94.6265C220.104 91.1094 229.853 86.6587 239.317 81.6868C248.78 76.7148 257.827 71.3305 266.909 65.8645C272.076 62.7553 277.234 59.6326 282.424 56.5688C283.679 55.83 282.541 53.8675 281.281 54.6108C272.131 60.0088 263.093 65.6016 253.915 70.9543C244.824 76.2616 235.587 81.3332 226.014 85.725C220.58 88.2178 215.046 90.4749 209.399 92.4374C208.823 92.6368 208.438 93.2124 208.606 93.8333C208.76 94.3953 209.417 94.8259 210.002 94.6265Z" fill="#DFEAE9"/>
</g>
<g opacity="0.3">
<path d="M578.657 79.0746C588.402 75.5122 597.893 71.2745 607.152 66.5972C616.412 61.9198 625.222 56.9479 634.069 51.7947C639.132 48.8487 644.172 45.8574 649.216 42.8842C650.472 42.1454 649.334 40.1829 648.074 40.9262C639.2 46.161 630.348 51.4321 621.352 56.4539C612.355 61.4757 603.454 66.1213 594.181 70.3046C588.887 72.6931 583.512 74.8958 578.059 76.89C577.484 77.0985 577.098 77.6605 577.266 78.286C577.42 78.8389 578.082 79.2876 578.662 79.0791L578.657 79.0746Z" fill="#DFEAE9"/>
<path d="M631.521 94.625C641.624 91.1079 651.373 86.6572 660.836 81.6853C670.3 76.7134 679.346 71.329 688.429 65.863C693.596 62.7539 698.754 59.6311 703.943 56.5673C705.199 55.8285 704.061 53.866 702.801 54.6093C693.65 60.0073 684.613 65.6002 675.435 70.9528C666.343 76.2601 657.106 81.3318 647.534 85.7236C642.1 88.2163 636.566 90.4734 630.919 92.4359C630.343 92.6353 629.958 93.2109 630.125 93.8319C630.28 94.3939 630.937 94.8244 631.521 94.625Z" fill="#DFEAE9"/>
<path d="M644.59 67.8525C655.073 62.4953 665.053 56.2408 675.101 50.1222C678.07 48.3138 681.043 46.519 684.039 44.7514C685.294 44.0126 684.157 42.0501 682.897 42.7934C672.622 48.8531 662.587 55.3207 652.195 61.1855C649.312 62.8126 646.398 64.3898 643.448 65.8991C642.147 66.5608 643.293 68.5188 644.59 67.857V67.8525Z" fill="#DFEAE9"/>
</g>
<g opacity="0.3">
<path d="M717.986 79.0746C727.73 75.5122 737.221 71.2745 746.48 66.5972C755.622 61.9788 764.55 56.9479 773.398 51.7947C778.46 48.8487 783.5 45.8574 788.544 42.8842C789.8 42.1454 788.662 40.1829 787.402 40.9262C778.528 46.161 769.677 51.4321 760.68 56.4539C751.801 61.4122 742.782 66.1213 733.509 70.3046C728.215 72.6931 722.84 74.8958 717.387 76.89C716.812 77.0985 716.427 77.6605 716.594 78.286C716.748 78.8389 717.41 79.2876 717.99 79.0791L717.986 79.0746Z" fill="#DFEAE9"/>
<path d="M770.857 94.625C780.96 91.1079 790.709 86.6572 800.172 81.6853C809.563 76.7542 818.682 71.329 827.765 65.863C832.932 62.7539 838.089 59.6311 843.279 56.5673C844.534 55.8285 843.397 53.866 842.137 54.6093C832.986 60.0073 823.949 65.6002 814.771 70.9528C805.593 76.3055 796.442 81.3318 786.87 85.7236C781.436 88.2163 775.902 90.4734 770.255 92.4359C769.679 92.6353 769.294 93.2109 769.461 93.8319C769.615 94.3939 770.273 94.8244 770.857 94.625Z" fill="#DFEAE9"/>
<path d="M783.933 67.8525C794.417 62.4953 804.397 56.2408 814.445 50.1222C817.414 48.3138 820.387 46.519 823.383 44.7514C824.638 44.0126 823.5 42.0501 822.24 42.7934C811.966 48.8531 801.931 55.3207 791.539 61.1855C788.656 62.8126 785.742 64.3898 782.791 65.8991C781.491 66.5608 782.637 68.5188 783.933 67.857V67.8525Z" fill="#DFEAE9"/>
</g>
</g>
<path d="M1194.88 123C1194.86 121.849 1197.17 118.364 1197.75 116.342C1198.89 112.426 1198.11 107.912 1195.51 105.247C1191.19 100.837 1184.27 101.644 1178.17 103.407C1180.11 96.7538 1180.01 89.8057 1172.96 87.4263C1163.46 84.2219 1154.19 91.2561 1146.05 98.4307C1146.33 94.0978 1145.43 89.7921 1142.77 86.1799C1135.96 76.9431 1121.67 85.1647 1114.63 89.3434C1100.62 97.6647 1087.15 105.578 1072.29 111.538C1063.18 115.187 1053.9 118.124 1044.52 120.344C1046.87 114.189 1047.8 106.77 1041.52 103.634C1036.97 101.359 1031.51 102.002 1026.39 103.434C1028.35 96.7628 1028.26 89.7831 1021.2 87.4036C1011.7 84.1993 1002.44 91.2334 994.295 98.408C994.567 94.0752 993.674 89.7695 991.009 86.1572C984.197 76.9204 969.907 85.1465 962.873 89.3208C948.863 97.6421 935.389 105.551 920.528 111.511C908.907 116.17 897.014 119.687 884.953 121.994C887.156 115.948 887.863 108.864 881.767 105.818C877.212 103.543 871.755 104.187 866.638 105.619C868.592 98.9474 868.515 91.9676 861.444 89.5837C851.945 86.3793 842.681 93.4134 834.541 100.593C834.813 96.2597 833.92 91.9586 831.255 88.3418C824.443 79.105 810.152 87.3266 803.118 91.5053C789.109 99.8266 775.634 107.74 760.773 113.7C751.668 117.349 742.394 120.285 733.004 122.506C735.356 116.351 736.28 108.932 730.008 105.8C725.453 103.52 719.996 104.169 714.879 105.601C716.832 98.9293 716.751 91.954 709.685 89.5701C700.185 86.3657 690.917 93.3999 682.781 100.574C683.049 96.2416 682.16 91.9405 679.495 88.3237C672.683 79.0868 658.393 87.3084 651.359 91.4872C637.349 99.8085 623.875 107.722 609.013 113.682C602.201 116.415 595.29 118.735 588.314 120.671C591.102 114.257 592.82 105.755 585.98 102.342C581.425 100.067 575.968 100.71 570.851 102.143C572.805 95.4711 572.723 88.4914 565.657 86.1119C556.158 82.9076 546.894 89.9417 538.754 97.1163C539.021 92.7835 538.133 88.4778 535.468 84.8655C528.656 75.6287 514.365 83.8548 507.331 88.0291C493.322 96.3504 479.847 104.264 464.986 110.224C455.881 113.877 446.603 116.814 437.212 119.03C439.564 112.875 440.493 105.456 434.221 102.319C429.666 100.044 424.209 100.688 419.092 102.12C421.045 95.4485 420.964 88.4687 413.898 86.0892C404.398 82.8849 395.13 89.9145 386.994 97.0937C387.262 92.7608 386.373 88.4596 383.708 84.8429C376.896 75.606 362.601 83.8276 355.572 88.0064C341.562 96.3277 328.088 104.241 313.226 110.206C301.606 114.865 289.713 118.382 277.652 120.684C279.855 114.638 280.562 107.554 274.466 104.509C269.911 102.233 264.454 102.877 259.337 104.309C261.291 97.6375 261.209 90.6578 254.143 88.2738C244.644 85.0695 235.38 92.1036 227.24 99.2782C227.512 94.9454 226.619 90.6442 223.954 87.0274C217.142 77.7906 202.851 86.0167 195.817 90.191C181.808 98.5123 168.333 106.426 153.472 112.386C144.366 116.034 135.093 118.971 125.702 121.192C128.055 115.037 128.984 107.618 122.707 104.486C118.152 102.206 112.699 102.854 107.578 104.286C109.531 97.6149 109.45 90.6351 102.379 88.2512C92.8795 85.0468 83.6155 92.081 75.4755 99.2556C75.7474 94.9227 74.8546 90.6215 72.1896 87.0048C65.3775 77.7679 51.0872 85.9895 44.0531 90.1683C30.0437 98.4896 16.5692 106.403 1.70776 112.363C-14.4544 118.844 -31.1423 123.159 -48.0796 124.99C-49.965 125.194 -51.3836 126.73 -51.4561 129.146C-53.6498 202.655 -55.8434 276.165 -58.037 349.674C-58.105 351.936 -56.4507 353.83 -54.6605 353.83H1195.2C1197.02 353.83 1198.62 351.94 1198.58 349.674C1197.35 274.116 1196.11 198.558 1194.88 123Z" fill="#8FD1E1" stroke="black" stroke-width="0.90646" stroke-miterlimit="10"/>
<g opacity="0.3">
<path d="M290.221 149.719C300.754 145.867 311.011 141.285 321.018 136.231C330.871 131.25 340.494 125.825 350.029 120.273C355.486 117.096 360.921 113.873 366.359 110.664C367.615 109.926 366.477 107.963 365.217 108.707C355.65 114.349 346.105 120.033 336.405 125.449C326.801 130.811 317.043 135.909 307.009 140.428C301.298 143.002 295.497 145.382 289.614 147.53C289.038 147.739 288.653 148.301 288.821 148.926C288.975 149.479 289.637 149.928 290.217 149.719H290.221Z" fill="#426698"/>
<path d="M347.291 166.507C358.187 162.713 368.697 157.913 378.904 152.552C389.033 147.235 398.869 141.384 408.667 135.488C414.251 132.125 419.83 128.748 425.441 125.435C426.697 124.696 425.559 122.734 424.299 123.477C414.396 129.319 404.615 135.37 394.685 141.162C384.873 146.886 374.902 152.361 364.573 157.093C358.726 159.772 352.761 162.201 346.688 164.318C346.113 164.517 345.727 165.093 345.895 165.714C346.049 166.276 346.706 166.706 347.291 166.507Z" fill="#426698"/>
<path d="M361.375 137.618C372.742 131.812 383.56 125.023 394.452 118.392C397.606 116.47 400.77 114.557 403.956 112.681C405.211 111.942 404.074 109.98 402.814 110.723C391.678 117.295 380.8 124.302 369.533 130.656C366.465 132.383 363.369 134.06 360.233 135.664C358.932 136.326 360.079 138.284 361.375 137.622V137.618Z" fill="#426698"/>
</g>
<g opacity="0.3">
<path d="M440.62 149.719C451.153 145.867 461.409 141.285 471.417 136.231C481.27 131.25 490.892 125.825 500.428 120.273C505.885 117.096 511.319 113.873 516.758 110.664C518.013 109.926 516.876 107.963 515.616 108.707C506.048 114.349 496.503 120.033 486.804 125.449C477.2 130.811 467.442 135.909 457.407 140.428C451.697 143.002 445.895 145.382 440.012 147.53C439.437 147.739 439.052 148.301 439.219 148.926C439.373 149.479 440.035 149.928 440.615 149.719H440.62Z" fill="#426698"/>
<path d="M497.693 166.507C508.589 162.713 519.099 157.913 529.306 152.552C539.513 147.19 549.271 141.384 559.07 135.488C564.653 132.125 570.233 128.748 575.844 125.435C577.099 124.696 575.962 122.734 574.702 123.477C564.799 129.319 555.018 135.37 545.088 141.162C535.275 146.886 525.304 152.361 514.975 157.093C509.128 159.772 503.164 162.201 497.09 164.318C496.515 164.517 496.13 165.093 496.297 165.714C496.451 166.276 497.109 166.706 497.693 166.507Z" fill="#426698"/>
<path d="M511.777 137.618C523.144 131.812 533.963 125.023 544.854 118.392C548.008 116.47 551.172 114.557 554.358 112.681C555.614 111.942 554.476 109.98 553.216 110.723C542.08 117.295 531.203 124.302 519.935 130.656C516.867 132.383 513.771 134.06 510.635 135.664C509.334 136.326 510.481 138.284 511.777 137.622V137.618Z" fill="#426698"/>
</g>
<g opacity="0.3">
<path d="M587.643 149.719C598.176 145.866 608.433 141.284 618.44 136.23C628.447 131.177 637.915 125.824 647.451 120.272C652.908 117.095 658.342 113.873 663.781 110.664C665.037 109.925 663.899 107.962 662.639 108.706C653.071 114.348 643.526 120.032 633.827 125.448C624.223 130.81 614.465 135.909 604.431 140.427C598.72 143.002 592.919 145.381 587.036 147.529C586.46 147.738 586.075 148.3 586.243 148.925C586.397 149.478 587.058 149.927 587.639 149.719H587.643Z" fill="#426698"/>
<path d="M644.717 166.506C655.612 162.712 666.123 157.913 676.33 152.551C686.459 147.235 696.294 141.383 706.093 135.487C711.677 132.124 717.256 128.747 722.867 125.434C724.123 124.695 722.985 122.733 721.725 123.476C711.822 129.318 702.041 135.369 692.111 141.161C682.181 146.954 672.327 152.361 661.998 157.092C656.152 159.771 650.187 162.2 644.114 164.317C643.538 164.516 643.153 165.092 643.321 165.713C643.475 166.275 644.132 166.705 644.717 166.506Z" fill="#426698"/>
<path d="M658.801 137.617C670.168 131.811 680.986 125.022 691.877 118.391C695.032 116.469 698.195 114.557 701.382 112.68C702.637 111.942 701.499 109.979 700.239 110.722C689.104 117.294 678.226 124.301 666.959 130.655C663.89 132.382 660.795 134.059 657.659 135.664C656.358 136.325 657.504 138.283 658.801 137.622V137.617Z" fill="#426698"/>
</g>
<g opacity="0.3">
<path d="M738.042 149.719C748.575 145.866 758.831 141.284 768.839 136.23C778.692 131.249 788.314 125.824 797.85 120.272C803.307 117.095 808.741 113.873 814.18 110.664C815.435 109.925 814.298 107.962 813.038 108.706C803.47 114.348 793.925 120.032 784.226 125.448C774.527 130.864 764.864 135.909 754.829 140.427C749.118 143.002 743.317 145.381 737.434 147.529C736.859 147.738 736.473 148.3 736.641 148.925C736.795 149.478 737.457 149.927 738.037 149.719H738.042Z" fill="#426698"/>
<path d="M795.115 166.506C806.011 162.712 816.521 157.913 826.728 152.551C836.935 147.189 846.693 141.383 856.492 135.487C862.075 132.124 867.655 128.747 873.266 125.434C874.521 124.695 873.383 122.733 872.123 123.476C862.22 129.318 852.44 135.369 842.509 141.161C832.697 146.886 822.726 152.361 812.397 157.092C806.55 159.771 800.586 162.2 794.512 164.317C793.937 164.516 793.552 165.092 793.719 165.713C793.873 166.275 794.53 166.705 795.115 166.506Z" fill="#426698"/>
<path d="M809.199 137.617C820.566 131.811 831.385 125.022 842.276 118.391C845.43 116.469 848.594 114.557 851.78 112.68C853.035 111.942 851.898 109.979 850.638 110.722C839.502 117.294 828.625 124.301 817.357 130.655C814.289 132.382 811.193 134.059 808.057 135.664C806.756 136.325 807.903 138.283 809.199 137.622V137.617Z" fill="#426698"/>
</g>
<defs>
<linearGradient id="paint0_linear_3115_14223" x1="136.559" y1="5.29135" x2="179.826" y2="72.7487" gradientUnits="userSpaceOnUse">
<stop offset="0.11" stop-color="white"/>
<stop offset="0.13" stop-color="#FDF1EF"/>
<stop offset="0.23" stop-color="#F6BFB7"/>
<stop offset="0.34" stop-color="#EF9486"/>
<stop offset="0.44" stop-color="#EA6F5D"/>
<stop offset="0.55" stop-color="#E6513B"/>
<stop offset="0.65" stop-color="#E33921"/>
<stop offset="0.76" stop-color="#E0290E"/>
<stop offset="0.88" stop-color="#DF1F03"/>
<stop offset="1" stop-color="#DF1C00"/>
</linearGradient>
<linearGradient id="paint1_linear_3115_14223" x1="683.461" y1="37.1543" x2="755.738" y2="37.1543" gradientUnits="userSpaceOnUse">
<stop offset="0.1" stop-color="#F23F98"/>
<stop offset="0.2" stop-color="#F2469C"/>
<stop offset="0.34" stop-color="#F35CA7"/>
<stop offset="0.52" stop-color="#F67FBA"/>
<stop offset="0.72" stop-color="#F9B0D4"/>
<stop offset="0.94" stop-color="#FDEDF5"/>
<stop offset="1" stop-color="white"/>
</linearGradient>
</defs>
</svg>
